%TF.GenerationSoftware,KiCad,Pcbnew,10.0.5*%
%TF.CreationDate,2026-08-10T00:08:50-04:00*%
%TF.ProjectId,headunit_carrier,68656164-756e-4697-945f-636172726965,rev?*%
%TF.SameCoordinates,Original*%
%TF.FileFunction,Copper,L1,Top*%
%TF.FilePolarity,Positive*%
%FSLAX46Y46*%
G04 Gerber Fmt 4.6, Leading zero omitted, Abs format (unit mm)*
G04 Created by KiCad (PCBNEW 10.0.5) date 2026-08-10 00:08:50*
%MOMM*%
%LPD*%
G01*
G04 APERTURE LIST*
G04 Aperture macros list*
%AMRoundRect*
0 Rectangle with rounded corners*
0 $1 Rounding radius*
0 $2 $3 $4 $5 $6 $7 $8 $9 X,Y pos of 4 corners*
0 Add a 4 corners polygon primitive as box body*
4,1,4,$2,$3,$4,$5,$6,$7,$8,$9,$2,$3,0*
0 Add four circle primitives for the rounded corners*
1,1,$1+$1,$2,$3*
1,1,$1+$1,$4,$5*
1,1,$1+$1,$6,$7*
1,1,$1+$1,$8,$9*
0 Add four rect primitives between the rounded corners*
20,1,$1+$1,$2,$3,$4,$5,0*
20,1,$1+$1,$4,$5,$6,$7,0*
20,1,$1+$1,$6,$7,$8,$9,0*
20,1,$1+$1,$8,$9,$2,$3,0*%
G04 Aperture macros list end*
%TA.AperFunction,SMDPad,CuDef*%
%ADD10RoundRect,0.250000X-0.250000X-0.350000X0.250000X-0.350000X0.250000X0.350000X-0.250000X0.350000X0*%
%TD*%
%TA.AperFunction,SMDPad,CuDef*%
%ADD11RoundRect,0.200000X-0.200000X-0.200000X0.200000X-0.200000X0.200000X0.200000X-0.200000X0.200000X0*%
%TD*%
%TA.AperFunction,ViaPad*%
%ADD12C,0.600000*%
%TD*%
%TA.AperFunction,Conductor*%
%ADD13C,0.200000*%
%TD*%
G04 APERTURE END LIST*
D10*
%TO.P,C8,1*%
%TO.N,+3V3*%
X150410000Y-36410000D03*
%TO.P,C8,2*%
%TO.N,GND*%
X153410000Y-36410000D03*
%TD*%
%TO.P,F1,1*%
%TO.N,+12V_RAW*%
X41200000Y-19200000D03*
%TO.P,F1,2*%
%TO.N,+12V_FUSED*%
X44200000Y-19200000D03*
%TD*%
D11*
%TO.P,J4,1*%
%TO.N,MIC_IN*%
X67700000Y-85635000D03*
%TO.P,J4,2*%
%TO.N,N/C*%
X67700000Y-86905000D03*
%TO.P,J4,3*%
%TO.N,GND*%
X73700000Y-86270000D03*
%TD*%
D10*
%TO.P,R1,1*%
%TO.N,+12V_ACC*%
X141200000Y-19200000D03*
%TO.P,R1,2*%
%TO.N,IGN_SENSE_RAW*%
X144200000Y-19200000D03*
%TD*%
D11*
%TO.P,T1,1*%
%TO.N,CODEC_LOUT*%
X78700000Y-73015000D03*
%TO.P,T1,2*%
%TO.N,GND*%
X78700000Y-74285000D03*
%TO.P,T1,3*%
%TO.N,AUX_L*%
X84700000Y-73015000D03*
%TO.P,T1,4*%
%TO.N,AUX_GND_ISO*%
X84700000Y-74285000D03*
%TD*%
%TO.P,U3,1*%
%TO.N,+12V_PROT*%
X89700000Y-20135000D03*
%TO.P,U3,2*%
%TO.N,GND*%
X89700000Y-21405000D03*
%TO.P,U3,3*%
%TO.N,+3V3_STBY*%
X95700000Y-20770000D03*
%TD*%
D10*
%TO.P,D1,1*%
%TO.N,GND*%
X48600000Y-19200000D03*
%TO.P,D1,2*%
%TO.N,+12V_PROT*%
X51600000Y-19200000D03*
%TD*%
D11*
%TO.P,U7,1*%
%TO.N,+3V3*%
X67700000Y-73015000D03*
%TO.P,U7,2*%
X67700000Y-74285000D03*
%TO.P,U7,3*%
%TO.N,GND*%
X67700000Y-75555000D03*
%TO.P,U7,4*%
%TO.N,MIC_IN*%
X67700000Y-76825000D03*
%TO.P,U7,5*%
%TO.N,I2C1_SDA*%
X67700000Y-78095000D03*
%TO.P,U7,6*%
%TO.N,I2C1_SCL*%
X67700000Y-79365000D03*
%TO.P,U7,7*%
%TO.N,I2S_BCLK*%
X73700000Y-73015000D03*
%TO.P,U7,8*%
%TO.N,I2S_LRCLK*%
X73700000Y-74285000D03*
%TO.P,U7,9*%
%TO.N,I2S_DOUT_SOM*%
X73700000Y-75555000D03*
%TO.P,U7,10*%
%TO.N,I2S_DIN_SOM*%
X73700000Y-76825000D03*
%TO.P,U7,11*%
%TO.N,CODEC_LOUT*%
X73700000Y-78095000D03*
%TO.P,U7,12*%
%TO.N,CODEC_ROUT*%
X73700000Y-79365000D03*
%TD*%
D10*
%TO.P,C5,1*%
%TO.N,+3V3*%
X74800000Y-28010000D03*
%TO.P,C5,2*%
%TO.N,GND*%
X77800000Y-28010000D03*
%TD*%
D11*
%TO.P,J2,1*%
%TO.N,VLED_A*%
X119500000Y-37345000D03*
%TO.P,J2,2*%
X119500000Y-38615000D03*
%TO.P,J2,3*%
%TO.N,GND*%
X119500000Y-39885000D03*
%TO.P,J2,4*%
X119500000Y-41155000D03*
%TO.P,J2,5*%
%TO.N,+3V3*%
X119500000Y-42425000D03*
%TO.P,J2,6*%
%TO.N,DSI_CLK_P*%
X119500000Y-43695000D03*
%TO.P,J2,7*%
%TO.N,DSI_CLK_N*%
X119500000Y-44965000D03*
%TO.P,J2,8*%
%TO.N,GND*%
X119500000Y-46235000D03*
%TO.P,J2,9*%
%TO.N,DSI_D0_P*%
X119500000Y-47505000D03*
%TO.P,J2,10*%
%TO.N,DSI_D0_N*%
X119500000Y-48775000D03*
%TO.P,J2,11*%
%TO.N,GND*%
X119500000Y-50045000D03*
%TO.P,J2,12*%
%TO.N,DSI_D1_P*%
X119500000Y-51315000D03*
%TO.P,J2,13*%
%TO.N,DSI_D1_N*%
X119500000Y-52585000D03*
%TO.P,J2,14*%
%TO.N,GND*%
X119500000Y-53855000D03*
%TO.P,J2,15*%
%TO.N,DSI_D2_P*%
X119500000Y-55125000D03*
%TO.P,J2,16*%
%TO.N,DSI_D2_N*%
X119500000Y-56395000D03*
%TO.P,J2,17*%
%TO.N,GND*%
X119500000Y-57665000D03*
%TO.P,J2,18*%
%TO.N,DSI_D3_P*%
X119500000Y-58935000D03*
%TO.P,J2,19*%
%TO.N,DSI_D3_N*%
X119500000Y-60205000D03*
%TO.P,J2,20*%
%TO.N,GND*%
X119500000Y-61475000D03*
%TO.P,J2,21*%
%TO.N,TP_RST*%
X127310000Y-37345000D03*
%TO.P,J2,22*%
%TO.N,TP_INT*%
X127310000Y-38615000D03*
%TO.P,J2,23*%
%TO.N,I2C0_SDA*%
X127310000Y-39885000D03*
%TO.P,J2,24*%
%TO.N,I2C0_SCL*%
X127310000Y-41155000D03*
%TO.P,J2,25*%
%TO.N,+3V3*%
X127310000Y-42425000D03*
%TO.P,J2,26*%
%TO.N,GND*%
X127310000Y-43695000D03*
%TO.P,J2,27*%
%TO.N,N/C*%
X127310000Y-44965000D03*
%TO.P,J2,28*%
X127310000Y-46235000D03*
%TO.P,J2,29*%
X127310000Y-47505000D03*
%TO.P,J2,30*%
X127310000Y-48775000D03*
%TO.P,J2,31*%
X127310000Y-50045000D03*
%TO.P,J2,32*%
X127310000Y-51315000D03*
%TO.P,J2,33*%
X127310000Y-52585000D03*
%TO.P,J2,34*%
X127310000Y-53855000D03*
%TO.P,J2,35*%
X127310000Y-55125000D03*
%TO.P,J2,36*%
X127310000Y-56395000D03*
%TO.P,J2,37*%
X127310000Y-57665000D03*
%TO.P,J2,38*%
X127310000Y-58935000D03*
%TO.P,J2,39*%
%TO.N,+3V3*%
X127310000Y-60205000D03*
%TO.P,J2,40*%
%TO.N,GND*%
X127310000Y-61475000D03*
%TD*%
D10*
%TO.P,L2,1*%
%TO.N,BL_SW*%
X143010000Y-36410000D03*
%TO.P,L2,2*%
%TO.N,VLED_A*%
X146010000Y-36410000D03*
%TD*%
%TO.P,C4,1*%
%TO.N,+5V_OUT*%
X67400000Y-28010000D03*
%TO.P,C4,2*%
%TO.N,GND*%
X70400000Y-28010000D03*
%TD*%
D11*
%TO.P,T2,1*%
%TO.N,CODEC_ROUT*%
X89700000Y-73015000D03*
%TO.P,T2,2*%
%TO.N,GND*%
X89700000Y-74285000D03*
%TO.P,T2,3*%
%TO.N,AUX_R*%
X95700000Y-73015000D03*
%TO.P,T2,4*%
%TO.N,AUX_GND_ISO*%
X95700000Y-74285000D03*
%TD*%
%TO.P,J1,1*%
%TO.N,+12V_RAW*%
X19500000Y-20135000D03*
%TO.P,J1,2*%
%TO.N,+12V_ACC*%
X19500000Y-21405000D03*
%TO.P,J1,3*%
%TO.N,GND*%
X25500000Y-20770000D03*
%TD*%
%TO.P,J8,1*%
%TO.N,USB_OTG_VBUS*%
X41500000Y-37345000D03*
%TO.P,J8,2*%
%TO.N,USB_OTG_DM*%
X41500000Y-38615000D03*
%TO.P,J8,3*%
%TO.N,USB_OTG_DP*%
X47500000Y-37345000D03*
%TO.P,J8,4*%
%TO.N,GND*%
X47500000Y-38615000D03*
%TD*%
%TO.P,U5,1*%
%TO.N,+5V_OUT*%
X130500000Y-20135000D03*
%TO.P,U5,2*%
%TO.N,GPIO_PWR_CTRL*%
X130500000Y-21405000D03*
%TO.P,U5,3*%
%TO.N,GND*%
X130500000Y-22675000D03*
%TO.P,U5,4*%
%TO.N,+5V_SWITCHED*%
X136500000Y-20770000D03*
%TO.P,U5,5*%
%TO.N,N/C*%
X136500000Y-22040000D03*
%TD*%
%TO.P,U4,1*%
%TO.N,IGN_SENSE_RAW*%
X119500000Y-20135000D03*
%TO.P,U4,2*%
%TO.N,IGN_SENSE_REF*%
X119500000Y-21405000D03*
%TO.P,U4,3*%
%TO.N,+3V3*%
X119500000Y-22675000D03*
%TO.P,U4,4*%
%TO.N,GND*%
X125500000Y-20770000D03*
%TO.P,U4,5*%
%TO.N,GPIO_IGN_SENSE*%
X125500000Y-22040000D03*
%TD*%
%TO.P,J6,1*%
%TO.N,USB1_VBUS*%
X19500000Y-37345000D03*
%TO.P,J6,2*%
%TO.N,USB1_DM*%
X19500000Y-38615000D03*
%TO.P,J6,3*%
%TO.N,USB1_DP*%
X25500000Y-37345000D03*
%TO.P,J6,4*%
%TO.N,GND*%
X25500000Y-38615000D03*
%TD*%
%TO.P,J7,1*%
%TO.N,USB2_VBUS*%
X30500000Y-37345000D03*
%TO.P,J7,2*%
%TO.N,USB2_DM*%
X30500000Y-38615000D03*
%TO.P,J7,3*%
%TO.N,USB2_DP*%
X36500000Y-37345000D03*
%TO.P,J7,4*%
%TO.N,GND*%
X36500000Y-38615000D03*
%TD*%
D10*
%TO.P,L1,1*%
%TO.N,U1_SW_NODE*%
X100400000Y-19200000D03*
%TO.P,L1,2*%
%TO.N,+5V_OUT*%
X103400000Y-19200000D03*
%TD*%
%TO.P,R3,1*%
%TO.N,GPIO_IGN_SENSE*%
X156000000Y-19200000D03*
%TO.P,R3,2*%
%TO.N,IGN_DEBOUNCE*%
X159000000Y-19200000D03*
%TD*%
%TO.P,C6,1*%
%TO.N,+3V3_STBY*%
X82200000Y-28010000D03*
%TO.P,C6,2*%
%TO.N,GND*%
X85200000Y-28010000D03*
%TD*%
D11*
%TO.P,J3,1*%
%TO.N,AUX_L*%
X100700000Y-73015000D03*
%TO.P,J3,2*%
%TO.N,AUX_R*%
X100700000Y-74285000D03*
%TO.P,J3,3*%
%TO.N,AUX_GND_ISO*%
X106700000Y-73650000D03*
%TD*%
D10*
%TO.P,R5,1*%
%TO.N,FB_U1*%
X97000000Y-28010000D03*
%TO.P,R5,2*%
%TO.N,GND*%
X100000000Y-28010000D03*
%TD*%
%TO.P,Y1,1*%
%TO.N,FM_XTAL*%
X130200000Y-72080000D03*
%TO.P,Y1,2*%
%TO.N,GND*%
X133200000Y-72080000D03*
%TD*%
%TO.P,C2,1*%
%TO.N,+12V_PROT*%
X19200000Y-26740000D03*
%TO.P,C2,2*%
%TO.N,GND*%
X22200000Y-26740000D03*
%TD*%
%TO.P,C1,1*%
%TO.N,+12V_PROT*%
X56000000Y-19200000D03*
%TO.P,C1,2*%
%TO.N,GND*%
X59000000Y-19200000D03*
%TD*%
D11*
%TO.P,U1,1*%
%TO.N,+12V_PROT*%
X67700000Y-20135000D03*
%TO.P,U1,2*%
X67700000Y-21405000D03*
%TO.P,U1,3*%
%TO.N,GND*%
X67700000Y-22675000D03*
%TO.P,U1,4*%
%TO.N,U1_SW_NODE*%
X73700000Y-20770000D03*
%TO.P,U1,5*%
%TO.N,FB_U1*%
X73700000Y-22040000D03*
%TD*%
%TO.P,SOM1,1*%
%TO.N,+5V_SWITCHED*%
X67700000Y-37345000D03*
%TO.P,SOM1,2*%
%TO.N,GND*%
X67700000Y-38615000D03*
%TO.P,SOM1,3*%
X67700000Y-39885000D03*
%TO.P,SOM1,4*%
%TO.N,USB1_DP*%
X67700000Y-41155000D03*
%TO.P,SOM1,5*%
%TO.N,USB1_DM*%
X67700000Y-42425000D03*
%TO.P,SOM1,6*%
%TO.N,USB2_DP*%
X67700000Y-43695000D03*
%TO.P,SOM1,7*%
%TO.N,USB2_DM*%
X67700000Y-44965000D03*
%TO.P,SOM1,8*%
%TO.N,USB_OTG_DP*%
X67700000Y-46235000D03*
%TO.P,SOM1,9*%
%TO.N,USB_OTG_DM*%
X67700000Y-47505000D03*
%TO.P,SOM1,10*%
%TO.N,UART_TX*%
X67700000Y-48775000D03*
%TO.P,SOM1,11*%
%TO.N,UART_RX*%
X67700000Y-50045000D03*
%TO.P,SOM1,12*%
%TO.N,I2C0_SDA*%
X67700000Y-51315000D03*
%TO.P,SOM1,13*%
%TO.N,I2C0_SCL*%
X67700000Y-52585000D03*
%TO.P,SOM1,14*%
%TO.N,I2C1_SDA*%
X67700000Y-53855000D03*
%TO.P,SOM1,15*%
%TO.N,I2C1_SCL*%
X67700000Y-55125000D03*
%TO.P,SOM1,16*%
%TO.N,SDMMC1_D0*%
X67700000Y-56395000D03*
%TO.P,SOM1,17*%
%TO.N,N/C*%
X67700000Y-57665000D03*
%TO.P,SOM1,18*%
%TO.N,PWM_BL*%
X67700000Y-58935000D03*
%TO.P,SOM1,19*%
%TO.N,GPIO_IGN_SENSE*%
X67700000Y-60205000D03*
%TO.P,SOM1,20*%
%TO.N,GPIO_PWR_CTRL*%
X67700000Y-61475000D03*
%TO.P,SOM1,21*%
%TO.N,DSI_CLK_P*%
X67700000Y-62745000D03*
%TO.P,SOM1,22*%
%TO.N,DSI_CLK_N*%
X75606000Y-37980000D03*
%TO.P,SOM1,23*%
%TO.N,DSI_D0_P*%
X75606000Y-39250000D03*
%TO.P,SOM1,24*%
%TO.N,DSI_D0_N*%
X75606000Y-40520000D03*
%TO.P,SOM1,25*%
%TO.N,DSI_D1_P*%
X75606000Y-41790000D03*
%TO.P,SOM1,26*%
%TO.N,DSI_D1_N*%
X75606000Y-43060000D03*
%TO.P,SOM1,27*%
%TO.N,DSI_D2_P*%
X75606000Y-44330000D03*
%TO.P,SOM1,28*%
%TO.N,DSI_D2_N*%
X75606000Y-45600000D03*
%TO.P,SOM1,29*%
%TO.N,DSI_D3_P*%
X75606000Y-46870000D03*
%TO.P,SOM1,30*%
%TO.N,DSI_D3_N*%
X75606000Y-48140000D03*
%TO.P,SOM1,31*%
%TO.N,I2S_BCLK*%
X75606000Y-49410000D03*
%TO.P,SOM1,32*%
%TO.N,I2S_LRCLK*%
X75606000Y-50680000D03*
%TO.P,SOM1,33*%
%TO.N,I2S_DOUT_SOM*%
X75606000Y-51950000D03*
%TO.P,SOM1,34*%
%TO.N,I2S_DIN_SOM*%
X75606000Y-53220000D03*
%TO.P,SOM1,35*%
%TO.N,TP_INT*%
X75606000Y-54490000D03*
%TO.P,SOM1,36*%
%TO.N,TP_RST*%
X75606000Y-55760000D03*
%TO.P,SOM1,37*%
%TO.N,+3V3*%
X75606000Y-57030000D03*
%TO.P,SOM1,38*%
X75606000Y-58300000D03*
%TO.P,SOM1,39*%
%TO.N,GND*%
X75606000Y-59570000D03*
%TO.P,SOM1,40*%
X75606000Y-60840000D03*
%TO.P,SOM1,41*%
%TO.N,FM_RSTB*%
X75606000Y-62110000D03*
%TD*%
%TO.P,U8,1*%
%TO.N,+3V3*%
X119500000Y-73015000D03*
%TO.P,U8,2*%
X119500000Y-74285000D03*
%TO.P,U8,3*%
%TO.N,GND*%
X119500000Y-75555000D03*
%TO.P,U8,4*%
%TO.N,FM_RSTB*%
X119500000Y-76825000D03*
%TO.P,U8,5*%
%TO.N,I2C0_SDA*%
X119500000Y-78095000D03*
%TO.P,U8,6*%
%TO.N,I2C0_SCL*%
X125500000Y-73015000D03*
%TO.P,U8,7*%
%TO.N,CODEC_LOUT*%
X125500000Y-74285000D03*
%TO.P,U8,8*%
%TO.N,CODEC_ROUT*%
X125500000Y-75555000D03*
%TO.P,U8,9*%
%TO.N,FM_ANT*%
X125500000Y-76825000D03*
%TO.P,U8,10*%
%TO.N,FM_XTAL*%
X125500000Y-78095000D03*
%TD*%
D10*
%TO.P,R2,1*%
%TO.N,IGN_SENSE_RAW*%
X148600000Y-19200000D03*
%TO.P,R2,2*%
%TO.N,GND*%
X151600000Y-19200000D03*
%TD*%
D11*
%TO.P,U2,1*%
%TO.N,+5V_OUT*%
X78700000Y-20135000D03*
%TO.P,U2,2*%
X78700000Y-21405000D03*
%TO.P,U2,3*%
%TO.N,GND*%
X84700000Y-20135000D03*
%TO.P,U2,4*%
%TO.N,+3V3*%
X84700000Y-21405000D03*
%TD*%
D10*
%TO.P,SD1,1*%
%TO.N,SDMMC1_D0*%
X19200000Y-43950000D03*
%TO.P,SD1,2*%
%TO.N,GND*%
X22200000Y-43950000D03*
%TD*%
%TO.P,J5,1*%
%TO.N,FM_ANT*%
X137600000Y-72080000D03*
%TO.P,J5,2*%
%TO.N,GND*%
X140600000Y-72080000D03*
%TD*%
%TO.P,C3,1*%
%TO.N,+12V_PROT*%
X107800000Y-19200000D03*
%TO.P,C3,2*%
%TO.N,GND*%
X110800000Y-19200000D03*
%TD*%
%TO.P,C7,1*%
%TO.N,IGN_DEBOUNCE*%
X119200000Y-28010000D03*
%TO.P,C7,2*%
%TO.N,GND*%
X122200000Y-28010000D03*
%TD*%
%TO.P,R4,1*%
%TO.N,+5V_OUT*%
X89600000Y-28010000D03*
%TO.P,R4,2*%
%TO.N,FB_U1*%
X92600000Y-28010000D03*
%TD*%
D11*
%TO.P,J9,1*%
%TO.N,GND*%
X52500000Y-37345000D03*
%TO.P,J9,2*%
%TO.N,UART_RX*%
X52500000Y-38615000D03*
%TO.P,J9,3*%
%TO.N,UART_TX*%
X58500000Y-37345000D03*
%TO.P,J9,4*%
%TO.N,+3V3*%
X58500000Y-38615000D03*
%TD*%
%TO.P,Q1,1*%
%TO.N,GND*%
X30500000Y-20135000D03*
%TO.P,Q1,2*%
%TO.N,+12V_PROT*%
X30500000Y-21405000D03*
%TO.P,Q1,3*%
%TO.N,+12V_FUSED*%
X36500000Y-20770000D03*
%TD*%
%TO.P,U6,1*%
%TO.N,+3V3*%
X132310000Y-37345000D03*
%TO.P,U6,2*%
%TO.N,PWM_BL*%
X132310000Y-38615000D03*
%TO.P,U6,3*%
%TO.N,GND*%
X132310000Y-39885000D03*
%TO.P,U6,4*%
%TO.N,BL_SW*%
X138310000Y-37980000D03*
%TO.P,U6,5*%
%TO.N,VLED_A*%
X138310000Y-39250000D03*
%TD*%
D12*
%TO.N,+12V_ACC*%
X140361000Y-20038800D03*
X20404400Y-21405000D03*
%TO.N,+12V_FUSED*%
X36500000Y-21688100D03*
X43346900Y-20053100D03*
%TO.N,+12V_PROT*%
X53465800Y-19200000D03*
X89002900Y-19437900D03*
X106792000Y-19157100D03*
X20046200Y-25893800D03*
X29565700Y-20930400D03*
X66765100Y-21405000D03*
%TO.N,+12V_RAW*%
X40356500Y-20043500D03*
X20450100Y-20072400D03*
%TO.N,+3V3*%
X128159000Y-60766200D03*
X118596000Y-22979100D03*
X118815000Y-72297500D03*
X72375800Y-57030000D03*
X85416700Y-22121700D03*
X149650000Y-35485700D03*
X131372000Y-37173200D03*
X59429600Y-38615000D03*
X121976000Y-42425000D03*
X73795700Y-27716000D03*
%TO.N,+3V3_STBY*%
X82200000Y-26895600D03*
X95002400Y-20072400D03*
%TO.N,+5V_OUT*%
X79373800Y-22128200D03*
X88764800Y-27174800D03*
X129597000Y-20072400D03*
X104416000Y-18988100D03*
X66564000Y-27174000D03*
%TO.N,+5V_SWITCHED*%
X135802000Y-20074000D03*
X68406200Y-36638800D03*
%TO.N,AUX_GND_ISO*%
X83789000Y-73374000D03*
X95002400Y-74982600D03*
X105761000Y-73815300D03*
%TO.N,AUX_L*%
X85625100Y-73015000D03*
X99990200Y-72305200D03*
%TO.N,CODEC_LOUT*%
X124582000Y-74285000D03*
X74645000Y-78206400D03*
%TO.N,CODEC_ROUT*%
X74611100Y-79365000D03*
X124581000Y-75299700D03*
X90512800Y-73621900D03*
%TO.N,DSI_CLK_N*%
X118569000Y-44965000D03*
X76520000Y-37980000D03*
%TO.N,DSI_CLK_P*%
X94348500Y-61823700D03*
X118597000Y-43695000D03*
X68621300Y-61823700D03*
%TO.N,DSI_D0_N*%
X76536900Y-40419300D03*
X118541000Y-48775000D03*
%TO.N,DSI_D0_P*%
X76550800Y-39250000D03*
X118595000Y-47505000D03*
%TO.N,DSI_D1_N*%
X118637000Y-52046100D03*
X76538000Y-43326000D03*
%TO.N,DSI_D1_P*%
X76541200Y-41790000D03*
X118582000Y-50397200D03*
%TO.N,DSI_D2_N*%
X118567000Y-56395000D03*
X76519100Y-45600000D03*
%TO.N,DSI_D2_P*%
X76542200Y-44330000D03*
X118564000Y-55125000D03*
%TO.N,DSI_D3_N*%
X118663000Y-60766200D03*
X76543400Y-48140000D03*
%TO.N,DSI_D3_P*%
X76518000Y-46870000D03*
X118592000Y-58027500D03*
%TO.N,FB_U1*%
X91562800Y-27922200D03*
X74404300Y-22744300D03*
%TO.N,FM_ANT*%
X136752000Y-72928200D03*
X126428000Y-76825000D03*
%TO.N,FM_RSTB*%
X76314200Y-62818200D03*
X118574000Y-76825000D03*
%TO.N,FM_XTAL*%
X126403000Y-78206400D03*
X130066000Y-73208300D03*
%TO.N,GND*%
X59845100Y-20045100D03*
X90397600Y-74982600D03*
X37212100Y-39327100D03*
X25500000Y-22979100D03*
X77793200Y-73378200D03*
X152445000Y-20045100D03*
X75992200Y-64098700D03*
X136196000Y-71717700D03*
X24539900Y-41610000D03*
X100000000Y-26897000D03*
X118585000Y-75299700D03*
X129205000Y-42190200D03*
X50247500Y-38553500D03*
X49217800Y-18135400D03*
X121976000Y-61475000D03*
X111658000Y-18379700D03*
X154150000Y-35459500D03*
X70400000Y-25882100D03*
X72926300Y-86926500D03*
X86604500Y-25880500D03*
X66775600Y-75299700D03*
X124645000Y-25565400D03*
%TO.N,GPIO_IGN_SENSE*%
X126206000Y-22746000D03*
X69065900Y-60154700D03*
X155155000Y-20045100D03*
%TO.N,GPIO_PWR_CTRL*%
X129593000Y-21405000D03*
X68538200Y-60766200D03*
%TO.N,I2C0_SCL*%
X68615500Y-52585000D03*
X126294000Y-72393000D03*
X126525000Y-41764500D03*
%TO.N,I2C0_SDA*%
X126423000Y-40419300D03*
X68640900Y-51315000D03*
X118594000Y-78208000D03*
%TO.N,I2C1_SCL*%
X66796300Y-54733600D03*
X66989800Y-80075200D03*
%TO.N,I2C1_SDA*%
X66795800Y-53855000D03*
X66764400Y-78206400D03*
%TO.N,I2S_BCLK*%
X74686600Y-49410000D03*
X72988600Y-72303600D03*
%TO.N,I2S_DIN_SOM*%
X76509200Y-53220000D03*
X74603100Y-76825000D03*
%TO.N,I2S_DOUT_SOM*%
X72795000Y-75273700D03*
X74699800Y-51950000D03*
%TO.N,I2S_LRCLK*%
X74636000Y-74285000D03*
X74702500Y-51076200D03*
%TO.N,IGN_DEBOUNCE*%
X158163000Y-20036900D03*
X120042000Y-27167800D03*
%TO.N,IGN_SENSE_RAW*%
X120387000Y-19594500D03*
X143187000Y-19157100D03*
%TO.N,MIC_IN*%
X66774000Y-76825000D03*
X66993400Y-84928400D03*
%TO.N,PWM_BL*%
X68634700Y-58935000D03*
X131374000Y-38615000D03*
%TO.N,SDMMC1_D0*%
X19200000Y-45072200D03*
X66766600Y-56395000D03*
%TO.N,TP_INT*%
X76513500Y-54951200D03*
X126380000Y-39545300D03*
%TO.N,TP_RST*%
X76536300Y-55760000D03*
X126394000Y-38261000D03*
%TO.N,U1_SW_NODE*%
X74397600Y-20072400D03*
X99541800Y-18341800D03*
%TO.N,UART_RX*%
X66771500Y-50045000D03*
X53204800Y-39319800D03*
%TO.N,UART_TX*%
X59440800Y-37512600D03*
X66764200Y-49166800D03*
%TO.N,USB1_DM*%
X66796300Y-42425000D03*
X20204800Y-39319800D03*
%TO.N,USB1_DP*%
X26433000Y-37345000D03*
X66830500Y-40419300D03*
%TO.N,USB2_DM*%
X31212100Y-39327100D03*
X66780200Y-44965000D03*
%TO.N,USB2_DP*%
X37427400Y-37345000D03*
X66795600Y-43326000D03*
%TO.N,USB_OTG_DM*%
X66788300Y-47505000D03*
X42204800Y-39319800D03*
%TO.N,USB_OTG_DP*%
X66783600Y-46232700D03*
X48436700Y-37345000D03*
%TO.N,VLED_A*%
X145175000Y-35575100D03*
X120430000Y-37684800D03*
X137384000Y-38324300D03*
%TD*%
%TO.N,+12V_ACC*%
D13*
X140361000Y-20038800D02*
X141200000Y-19200000D01*
X20404400Y-21405000D02*
X19500000Y-21405000D01*
%TO.N,+12V_FUSED*%
X36500000Y-21688100D02*
X36500000Y-20770000D01*
X43346900Y-20053100D02*
X44200000Y-19200000D01*
%TO.N,+12V_PROT*%
X66765100Y-21405000D02*
X67700000Y-21405000D01*
X20046200Y-25893800D02*
X19200000Y-26740000D01*
X56000000Y-19200000D02*
X51600000Y-19200000D01*
X67700000Y-21405000D02*
X67700000Y-20135000D01*
X29565700Y-20930400D02*
X30025400Y-20930400D01*
X107757000Y-19157100D02*
X107800000Y-19200000D01*
X30025400Y-20930400D02*
X30500000Y-21405000D01*
X106792000Y-19157100D02*
X107757000Y-19157100D01*
X89002900Y-19437900D02*
X89700000Y-20135000D01*
%TO.N,+12V_RAW*%
X19562600Y-20072400D02*
X19500000Y-20135000D01*
X40356500Y-20043500D02*
X41200000Y-19200000D01*
X20450100Y-20072400D02*
X19562600Y-20072400D01*
%TO.N,+3V3*%
X118596000Y-22979100D02*
X119196000Y-22979100D01*
X75606000Y-57030000D02*
X72375800Y-57030000D01*
X67700000Y-73015000D02*
X67700000Y-66206000D01*
X74506000Y-27716000D02*
X74800000Y-28010000D01*
X85416700Y-22121700D02*
X84700000Y-21405000D01*
X119500000Y-74285000D02*
X119500000Y-73015000D01*
X59429600Y-38615000D02*
X58500000Y-38615000D01*
X75606000Y-57030000D02*
X75606000Y-58300000D01*
X132310000Y-37345000D02*
X132138000Y-37173200D01*
X119500000Y-72982300D02*
X118815000Y-72297500D01*
X128159000Y-60766200D02*
X127871000Y-60766200D01*
X119500000Y-73015000D02*
X119500000Y-72982300D01*
X150410000Y-36246200D02*
X150410000Y-36410000D01*
X67700000Y-74285000D02*
X67700000Y-73015000D01*
X67700000Y-66206000D02*
X75606000Y-58300000D01*
X132138000Y-37173200D02*
X131372000Y-37173200D01*
X127871000Y-60766200D02*
X127310000Y-60205000D01*
X119500000Y-42425000D02*
X127310000Y-42425000D01*
X149650000Y-35485700D02*
X150410000Y-36246200D01*
X73795700Y-27716000D02*
X74506000Y-27716000D01*
X119196000Y-22979100D02*
X119500000Y-22675000D01*
%TO.N,+3V3_STBY*%
X95002400Y-20072400D02*
X95700000Y-20770000D01*
X82200000Y-28010000D02*
X82200000Y-26895600D01*
%TO.N,+5V_OUT*%
X104416000Y-18988100D02*
X103612000Y-18988100D01*
X130437000Y-20072400D02*
X130500000Y-20135000D01*
X78700000Y-21405000D02*
X78700000Y-20135000D01*
X129597000Y-20072400D02*
X130437000Y-20072400D01*
X79373800Y-22128200D02*
X78700000Y-21454400D01*
X66564000Y-27174000D02*
X67400000Y-28010000D01*
X88764800Y-27174800D02*
X89600000Y-28010000D01*
X78700000Y-21454400D02*
X78700000Y-21405000D01*
X103612000Y-18988100D02*
X103400000Y-19200000D01*
%TO.N,+5V_SWITCHED*%
X135804000Y-20074000D02*
X135802000Y-20074000D01*
X136500000Y-20770000D02*
X135804000Y-20074000D01*
X68406200Y-36638800D02*
X67700000Y-37345000D01*
%TO.N,AUX_GND_ISO*%
X105761000Y-73815300D02*
X106535000Y-73815300D01*
X83789000Y-73374000D02*
X84700000Y-74285000D01*
X95002400Y-74982600D02*
X95700000Y-74285000D01*
X106535000Y-73815300D02*
X106700000Y-73650000D01*
%TO.N,AUX_L*%
X100700000Y-73015000D02*
X99990200Y-72305200D01*
X85625100Y-73015000D02*
X84700000Y-73015000D01*
%TO.N,AUX_R*%
X99430000Y-73015000D02*
X95700000Y-73015000D01*
X100700000Y-74285000D02*
X99430000Y-73015000D01*
%TO.N,BL_SW*%
X139880000Y-36410000D02*
X138310000Y-37980000D01*
X143010000Y-36410000D02*
X139880000Y-36410000D01*
%TO.N,CODEC_LOUT*%
X79453600Y-73768600D02*
X78700000Y-73015000D01*
X79453600Y-74668000D02*
X79453600Y-73768600D01*
X75915200Y-78206400D02*
X79453600Y-74668000D01*
X73811400Y-78206400D02*
X73700000Y-78095000D01*
X74645000Y-78206400D02*
X73811400Y-78206400D01*
X74645000Y-78206400D02*
X75915200Y-78206400D01*
X124582000Y-74285000D02*
X125500000Y-74285000D01*
%TO.N,CODEC_ROUT*%
X125245000Y-75299700D02*
X125500000Y-75555000D01*
X90512800Y-73621900D02*
X89905900Y-73015000D01*
X124581000Y-75299700D02*
X125245000Y-75299700D01*
X74611100Y-79365000D02*
X73700000Y-79365000D01*
X89905900Y-73015000D02*
X89700000Y-73015000D01*
%TO.N,DSI_CLK_N*%
X76520000Y-37980000D02*
X75606000Y-37980000D01*
X118569000Y-44965000D02*
X119500000Y-44965000D01*
%TO.N,DSI_CLK_P*%
X118597000Y-43695000D02*
X119500000Y-43695000D01*
X68621300Y-61823700D02*
X67700000Y-62745000D01*
%TO.N,DSI_D0_N*%
X75706700Y-40419300D02*
X75606000Y-40520000D01*
X118541000Y-48775000D02*
X119500000Y-48775000D01*
X76536900Y-40419300D02*
X75706700Y-40419300D01*
%TO.N,DSI_D0_P*%
X76550800Y-39250000D02*
X75606000Y-39250000D01*
X118595000Y-47505000D02*
X119500000Y-47505000D01*
%TO.N,DSI_D1_N*%
X76538000Y-43326000D02*
X75872000Y-43326000D01*
X118961000Y-52046100D02*
X119500000Y-52585000D01*
X118637000Y-52046100D02*
X118961000Y-52046100D01*
X75872000Y-43326000D02*
X75606000Y-43060000D01*
%TO.N,DSI_D1_P*%
X118582000Y-50397200D02*
X119500000Y-51315000D01*
X76541200Y-41790000D02*
X75606000Y-41790000D01*
%TO.N,DSI_D2_N*%
X118567000Y-56395000D02*
X119500000Y-56395000D01*
X76519100Y-45600000D02*
X75606000Y-45600000D01*
%TO.N,DSI_D2_P*%
X118564000Y-55125000D02*
X119500000Y-55125000D01*
X76542200Y-44330000D02*
X75606000Y-44330000D01*
%TO.N,DSI_D3_N*%
X76543400Y-48140000D02*
X75606000Y-48140000D01*
X118939000Y-60766200D02*
X119500000Y-60205000D01*
X118663000Y-60766200D02*
X118939000Y-60766200D01*
%TO.N,DSI_D3_P*%
X76518000Y-46870000D02*
X75606000Y-46870000D01*
X118592000Y-58027500D02*
X119500000Y-58935000D01*
%TO.N,FB_U1*%
X97000000Y-28010000D02*
X92600000Y-28010000D01*
X74404300Y-22744300D02*
X73700000Y-22040000D01*
X92512200Y-27922200D02*
X92600000Y-28010000D01*
X91562800Y-27922200D02*
X92512200Y-27922200D01*
%TO.N,FM_ANT*%
X126428000Y-76825000D02*
X125500000Y-76825000D01*
X136752000Y-72928200D02*
X137600000Y-72080000D01*
%TO.N,FM_RSTB*%
X76314200Y-62818200D02*
X75606000Y-62110000D01*
X118574000Y-76825000D02*
X119500000Y-76825000D01*
%TO.N,FM_XTAL*%
X130066000Y-73208300D02*
X130200000Y-73073900D01*
X126403000Y-78206400D02*
X125611000Y-78206400D01*
X125611000Y-78206400D02*
X125500000Y-78095000D01*
X130200000Y-73073900D02*
X130200000Y-72080000D01*
%TO.N,GND*%
X127700000Y-43695000D02*
X127310000Y-43695000D01*
X85200000Y-28010000D02*
X85200000Y-27285000D01*
X53250700Y-36594300D02*
X52500000Y-37345000D01*
X89700000Y-74285000D02*
X90397600Y-74982600D01*
X75606000Y-59570000D02*
X75606000Y-60840000D01*
X51291500Y-38553500D02*
X52500000Y-37345000D01*
X120204000Y-60771000D02*
X119500000Y-61475000D01*
X72926300Y-86926500D02*
X73043500Y-86926500D01*
X136742000Y-71171400D02*
X139691000Y-71171400D01*
X22200000Y-26740000D02*
X25500000Y-23440000D01*
X118585000Y-75299700D02*
X119245000Y-75299700D01*
X49217800Y-18135400D02*
X48600000Y-18753200D01*
X152445000Y-20045100D02*
X151600000Y-19200000D01*
X77793200Y-73378200D02*
X78700000Y-74285000D01*
X120204000Y-58369000D02*
X120204000Y-60771000D01*
X118944000Y-46235000D02*
X119500000Y-46235000D01*
X25500000Y-22979100D02*
X25500000Y-20770000D01*
X50247500Y-38553500D02*
X51291500Y-38553500D01*
X153410000Y-36199500D02*
X153410000Y-36410000D01*
X67700000Y-39885000D02*
X67700000Y-38615000D01*
X37212100Y-39327100D02*
X36500000Y-38615000D01*
X117913000Y-42742400D02*
X117913000Y-45203100D01*
X66775600Y-75299700D02*
X67444700Y-75299700D01*
X119500000Y-57665000D02*
X120204000Y-58369000D01*
X119245000Y-75299700D02*
X119500000Y-75555000D01*
X139691000Y-71171400D02*
X140600000Y-72080000D01*
X127470000Y-22740000D02*
X125500000Y-20770000D01*
X48600000Y-18753200D02*
X48600000Y-19200000D01*
X85200000Y-27285000D02*
X86604500Y-25880500D01*
X120204000Y-54559000D02*
X120204000Y-56961000D01*
X70400000Y-28010000D02*
X70400000Y-25882100D01*
X117913000Y-45203100D02*
X118944000Y-46235000D01*
X73043500Y-86926500D02*
X73700000Y-86270000D01*
X76890500Y-27100500D02*
X77800000Y-28010000D01*
X130005000Y-42190200D02*
X129205000Y-42190200D01*
X59845100Y-20045100D02*
X59000000Y-19200000D01*
X119500000Y-61475000D02*
X127310000Y-61475000D01*
X120204000Y-56961000D02*
X119500000Y-57665000D01*
X120220000Y-46954500D02*
X119500000Y-46235000D01*
X133200000Y-72080000D02*
X133562000Y-71717700D01*
X70400000Y-25882100D02*
X70400000Y-25375000D01*
X110800000Y-19200000D02*
X111620000Y-18379700D01*
X136196000Y-71717700D02*
X136742000Y-71171400D01*
X24581000Y-41569100D02*
X24581000Y-39534000D01*
X122200000Y-28010000D02*
X124645000Y-25565400D01*
X154150000Y-35459500D02*
X153410000Y-36199500D01*
X50186000Y-38615000D02*
X50247500Y-38553500D01*
X119500000Y-41155000D02*
X117913000Y-42742400D01*
X119500000Y-46235000D02*
X124770000Y-46235000D01*
X70400000Y-27100500D02*
X76890500Y-27100500D01*
X65679300Y-36594300D02*
X53250700Y-36594300D01*
X120220000Y-49325500D02*
X120220000Y-46954500D01*
X119500000Y-53855000D02*
X120204000Y-54559000D01*
X127535000Y-22675000D02*
X130500000Y-22675000D01*
X25500000Y-20770000D02*
X26135000Y-20135000D01*
X74889600Y-62996100D02*
X75992200Y-64098700D01*
X67444700Y-75299700D02*
X67700000Y-75555000D01*
X119500000Y-50045000D02*
X120204000Y-50749000D01*
X132310000Y-39885000D02*
X130005000Y-42190200D01*
X111620000Y-18379700D02*
X111658000Y-18379700D01*
X24580900Y-41569100D02*
X24581000Y-41569100D01*
X119500000Y-50045000D02*
X120220000Y-49325500D01*
X86604500Y-24500500D02*
X89700000Y-21405000D01*
X86604500Y-25880500D02*
X86604500Y-24500500D01*
X120204000Y-53151000D02*
X119500000Y-53855000D01*
X70400000Y-25375000D02*
X67700000Y-22675000D01*
X22200000Y-43950000D02*
X24540000Y-41610000D01*
X47500000Y-38615000D02*
X50186000Y-38615000D01*
X67700000Y-38615000D02*
X65679300Y-36594300D01*
X127470000Y-22740000D02*
X127535000Y-22675000D01*
X75606000Y-60840000D02*
X74889600Y-61556400D01*
X24581000Y-39534000D02*
X25500000Y-38615000D01*
X24540000Y-41610000D02*
X24580900Y-41569100D01*
X88430000Y-20135000D02*
X84700000Y-20135000D01*
X124770000Y-46235000D02*
X127310000Y-43695000D01*
X74889600Y-61556400D02*
X74889600Y-62996100D01*
X24540000Y-41610000D02*
X24539900Y-41610000D01*
X26135000Y-20135000D02*
X30500000Y-20135000D01*
X120204000Y-50749000D02*
X120204000Y-53151000D01*
X89700000Y-21405000D02*
X88430000Y-20135000D01*
X100000000Y-28010000D02*
X100000000Y-26897000D01*
X129205000Y-42190200D02*
X127700000Y-43695000D01*
X133562000Y-71717700D02*
X136196000Y-71717700D01*
X119500000Y-41155000D02*
X119500000Y-39885000D01*
X25500000Y-23440000D02*
X25500000Y-22979100D01*
X124645000Y-25565400D02*
X127470000Y-22740000D01*
%TO.N,GPIO_IGN_SENSE*%
X69065900Y-60154700D02*
X67750300Y-60154700D01*
X155155000Y-20045100D02*
X156000000Y-19200000D01*
X67750300Y-60154700D02*
X67700000Y-60205000D01*
X126206000Y-22746000D02*
X125500000Y-22040000D01*
%TO.N,GPIO_PWR_CTRL*%
X68408800Y-60766200D02*
X67700000Y-61475000D01*
X130500000Y-21405000D02*
X129593000Y-21405000D01*
X68538200Y-60766200D02*
X68408800Y-60766200D01*
%TO.N,I2C0_SCL*%
X127134000Y-41155000D02*
X126525000Y-41764500D01*
X126122000Y-72393000D02*
X125500000Y-73015000D01*
X126294000Y-72393000D02*
X126122000Y-72393000D01*
X68615500Y-52585000D02*
X67700000Y-52585000D01*
X127310000Y-41155000D02*
X127134000Y-41155000D01*
%TO.N,I2C0_SDA*%
X119387000Y-78208000D02*
X118594000Y-78208000D01*
X119500000Y-78095000D02*
X119387000Y-78208000D01*
X68640900Y-51315000D02*
X67700000Y-51315000D01*
X126423000Y-40419300D02*
X126776000Y-40419300D01*
X126776000Y-40419300D02*
X127310000Y-39885000D01*
%TO.N,I2C1_SCL*%
X67700000Y-55125000D02*
X67308600Y-54733600D01*
X66989800Y-80075200D02*
X67700000Y-79365000D01*
X67308600Y-54733600D02*
X66796300Y-54733600D01*
%TO.N,I2C1_SDA*%
X66764400Y-78206400D02*
X67588600Y-78206400D01*
X67588600Y-78206400D02*
X67700000Y-78095000D01*
X67700000Y-53855000D02*
X66795800Y-53855000D01*
%TO.N,I2S_BCLK*%
X75606000Y-49410000D02*
X74686600Y-49410000D01*
X73700000Y-73015000D02*
X72988600Y-72303600D01*
%TO.N,I2S_DIN_SOM*%
X75606000Y-53220000D02*
X76509200Y-53220000D01*
X74603100Y-76825000D02*
X73700000Y-76825000D01*
%TO.N,I2S_DOUT_SOM*%
X75606000Y-51950000D02*
X74699800Y-51950000D01*
X73700000Y-75555000D02*
X73418700Y-75273700D01*
X73418700Y-75273700D02*
X72795000Y-75273700D01*
%TO.N,I2S_LRCLK*%
X75606000Y-50680000D02*
X75098700Y-50680000D01*
X74636000Y-74285000D02*
X73700000Y-74285000D01*
X75098700Y-50680000D02*
X74702500Y-51076200D01*
%TO.N,IGN_DEBOUNCE*%
X120042000Y-27167800D02*
X119200000Y-28010000D01*
X158163000Y-20036900D02*
X159000000Y-19200000D01*
%TO.N,IGN_SENSE_RAW*%
X120387000Y-19594500D02*
X120040000Y-19594500D01*
X120040000Y-19594500D02*
X119500000Y-20135000D01*
X143187000Y-19157100D02*
X144157000Y-19157100D01*
X144157000Y-19157100D02*
X144200000Y-19200000D01*
X148600000Y-19200000D02*
X144200000Y-19200000D01*
%TO.N,MIC_IN*%
X67700000Y-85635000D02*
X66993400Y-84928400D01*
X67700000Y-76825000D02*
X66774000Y-76825000D01*
%TO.N,PWM_BL*%
X68634700Y-58935000D02*
X67700000Y-58935000D01*
X131374000Y-38615000D02*
X132310000Y-38615000D01*
%TO.N,SDMMC1_D0*%
X19200000Y-45072200D02*
X19200000Y-43950000D01*
X66766600Y-56395000D02*
X67700000Y-56395000D01*
%TO.N,TP_INT*%
X126380000Y-39545300D02*
X127310000Y-38615000D01*
X75606000Y-54490000D02*
X76067200Y-54951200D01*
X76067200Y-54951200D02*
X76513500Y-54951200D01*
%TO.N,TP_RST*%
X76536300Y-55760000D02*
X75606000Y-55760000D01*
X127310000Y-37345000D02*
X126394000Y-38261000D01*
%TO.N,U1_SW_NODE*%
X74397600Y-20072400D02*
X73700000Y-20770000D01*
X99541800Y-18341800D02*
X100400000Y-19200000D01*
%TO.N,UART_RX*%
X52500000Y-38615000D02*
X53204800Y-39319800D01*
X67700000Y-50045000D02*
X66771500Y-50045000D01*
%TO.N,UART_TX*%
X59440800Y-37512600D02*
X58667600Y-37512600D01*
X66764200Y-49166800D02*
X67308200Y-49166800D01*
X58667600Y-37512600D02*
X58500000Y-37345000D01*
X67308200Y-49166800D02*
X67700000Y-48775000D01*
%TO.N,USB1_DM*%
X20204800Y-39319800D02*
X19500000Y-38615000D01*
X67700000Y-42425000D02*
X66796300Y-42425000D01*
%TO.N,USB1_DP*%
X66830500Y-40419300D02*
X66964300Y-40419300D01*
X26433000Y-37345000D02*
X25500000Y-37345000D01*
X66964300Y-40419300D02*
X67700000Y-41155000D01*
%TO.N,USB2_DM*%
X31212100Y-39327100D02*
X30500000Y-38615000D01*
X66780200Y-44965000D02*
X67700000Y-44965000D01*
%TO.N,USB2_DP*%
X37427400Y-37345000D02*
X36500000Y-37345000D01*
X66795600Y-43326000D02*
X67331000Y-43326000D01*
X67331000Y-43326000D02*
X67700000Y-43695000D01*
%TO.N,USB_OTG_DM*%
X42204800Y-39319800D02*
X41500000Y-38615000D01*
X66788300Y-47505000D02*
X67700000Y-47505000D01*
%TO.N,USB_OTG_DP*%
X67697700Y-46232700D02*
X67700000Y-46235000D01*
X66783600Y-46232700D02*
X67697700Y-46232700D01*
X47500000Y-37345000D02*
X48436700Y-37345000D01*
%TO.N,VLED_A*%
X137384000Y-38324300D02*
X138310000Y-39250000D01*
X119500000Y-38615000D02*
X119500000Y-37345000D01*
X145175000Y-35575100D02*
X146010000Y-36410000D01*
X120430000Y-37684800D02*
X119500000Y-38615000D01*
%TD*%
M02*
