M48
; DRILL file KiCad 10.0.5 date 2026-08-10T00:09:11
; FORMAT={-:-/ absolute / metric / decimal}
; #@! TF.CreationDate,2026-08-10T00:09:11-04:00
; #@! TF.GenerationSoftware,Kicad,Pcbnew,10.0.5
; #@! TF.FileFunction,Plated,1,6,PTH
FMAT,2
METRIC
; #@! TA.AperFunction,Plated,PTH,ViaDrill
T1C0.300
%
G90
G05
T1
X19.2Y-45.072
X20.046Y-25.894
X20.205Y-39.32
X20.404Y-21.405
X20.45Y-20.072
X24.54Y-41.61
X25.5Y-22.979
X26.433Y-37.345
X29.566Y-20.93
X31.212Y-39.327
X36.5Y-21.688
X37.212Y-39.327
X37.427Y-37.345
X40.356Y-20.043
X42.205Y-39.32
X43.347Y-20.053
X48.437Y-37.345
X49.218Y-18.135
X50.247Y-38.553
X53.205Y-39.32
X53.466Y-19.2
X59.43Y-38.615
X59.441Y-37.513
X59.845Y-20.045
X66.564Y-27.174
X66.764Y-49.167
X66.764Y-78.206
X66.765Y-21.405
X66.767Y-56.395
X66.772Y-50.045
X66.774Y-76.825
X66.776Y-75.3
X66.78Y-44.965
X66.784Y-46.233
X66.788Y-47.505
X66.796Y-43.326
X66.796Y-53.855
X66.796Y-42.425
X66.796Y-54.734
X66.831Y-40.419
X66.99Y-80.075
X66.993Y-84.928
X68.406Y-36.639
X68.538Y-60.766
X68.615Y-52.585
X68.621Y-61.824
X68.635Y-58.935
X68.641Y-51.315
X69.066Y-60.155
X70.4Y-25.882
X72.376Y-57.03
X72.795Y-75.274
X72.926Y-86.926
X72.989Y-72.304
X73.796Y-27.716
X74.398Y-20.072
X74.404Y-22.744
X74.603Y-76.825
X74.611Y-79.365
X74.636Y-74.285
X74.645Y-78.206
X74.687Y-49.41
X74.7Y-51.95
X74.703Y-51.076
X75.992Y-64.099
X76.314Y-62.818
X76.509Y-53.22
X76.513Y-54.951
X76.518Y-46.87
X76.519Y-45.6
X76.52Y-37.98
X76.536Y-55.76
X76.537Y-40.419
X76.538Y-43.326
X76.541Y-41.79
X76.542Y-44.33
X76.543Y-48.14
X76.551Y-39.25
X77.793Y-73.378
X79.374Y-22.128
X82.2Y-26.896
X83.789Y-73.374
X85.417Y-22.122
X85.625Y-73.015
X86.605Y-25.88
X88.765Y-27.175
X89.003Y-19.438
X90.398Y-74.983
X90.513Y-73.622
X91.563Y-27.922
X94.349Y-61.824
X95.002Y-20.072
X95.002Y-74.983
X99.542Y-18.342
X99.99Y-72.305
X100.0Y-26.897
X104.416Y-18.988
X105.761Y-73.815
X106.792Y-19.157
X111.658Y-18.38
X118.541Y-48.775
X118.564Y-55.125
X118.567Y-56.395
X118.569Y-44.965
X118.574Y-76.825
X118.582Y-50.397
X118.585Y-75.3
X118.592Y-58.027
X118.594Y-78.208
X118.595Y-47.505
X118.596Y-22.979
X118.597Y-43.695
X118.637Y-52.046
X118.663Y-60.766
X118.815Y-72.297
X120.042Y-27.168
X120.387Y-19.595
X120.43Y-37.685
X121.976Y-42.425
X121.976Y-61.475
X124.581Y-75.3
X124.582Y-74.285
X124.645Y-25.565
X126.206Y-22.746
X126.294Y-72.393
X126.38Y-39.545
X126.394Y-38.261
X126.403Y-78.206
X126.423Y-40.419
X126.428Y-76.825
X126.525Y-41.764
X128.159Y-60.766
X129.205Y-42.19
X129.593Y-21.405
X129.597Y-20.072
X130.066Y-73.208
X131.372Y-37.173
X131.374Y-38.615
X135.802Y-20.074
X136.196Y-71.718
X136.752Y-72.928
X137.384Y-38.324
X140.361Y-20.039
X143.187Y-19.157
X145.175Y-35.575
X149.65Y-35.486
X152.445Y-20.045
X154.15Y-35.459
X155.155Y-20.045
X158.163Y-20.037
M30
