%TF.GenerationSoftware,KiCad,Pcbnew,10.0.5*%
%TF.CreationDate,2026-08-10T00:08:50-04:00*%
%TF.ProjectId,headunit_carrier,68656164-756e-4697-945f-636172726965,rev?*%
%TF.SameCoordinates,Original*%
%TF.FileFunction,Copper,L5,Inr*%
%TF.FilePolarity,Positive*%
%FSLAX46Y46*%
G04 Gerber Fmt 4.6, Leading zero omitted, Abs format (unit mm)*
G04 Created by KiCad (PCBNEW 10.0.5) date 2026-08-10 00:08:50*
%MOMM*%
%LPD*%
G01*
G04 APERTURE LIST*
%TA.AperFunction,ViaPad*%
%ADD10C,0.600000*%
%TD*%
%TA.AperFunction,Conductor*%
%ADD11C,0.200000*%
%TD*%
G04 APERTURE END LIST*
D10*
%TO.N,+12V_ACC*%
X140361000Y-20038800D03*
X20404400Y-21405000D03*
%TO.N,+12V_FUSED*%
X36500000Y-21688100D03*
X43346900Y-20053100D03*
%TO.N,+12V_PROT*%
X53465800Y-19200000D03*
X89002900Y-19437900D03*
X106792000Y-19157100D03*
X20046200Y-25893800D03*
X29565700Y-20930400D03*
X66765100Y-21405000D03*
%TO.N,+12V_RAW*%
X40356500Y-20043500D03*
X20450100Y-20072400D03*
%TO.N,+3V3*%
X128159000Y-60766200D03*
X118596000Y-22979100D03*
X118815000Y-72297500D03*
X72375800Y-57030000D03*
X85416700Y-22121700D03*
X149650000Y-35485700D03*
X131372000Y-37173200D03*
X59429600Y-38615000D03*
X121976000Y-42425000D03*
X73795700Y-27716000D03*
%TO.N,+3V3_STBY*%
X82200000Y-26895600D03*
X95002400Y-20072400D03*
%TO.N,+5V_OUT*%
X79373800Y-22128200D03*
X88764800Y-27174800D03*
X129597000Y-20072400D03*
X104416000Y-18988100D03*
X66564000Y-27174000D03*
%TO.N,+5V_SWITCHED*%
X135802000Y-20074000D03*
X68406200Y-36638800D03*
%TO.N,AUX_GND_ISO*%
X83789000Y-73374000D03*
X95002400Y-74982600D03*
X105761000Y-73815300D03*
%TO.N,AUX_L*%
X85625100Y-73015000D03*
X99990200Y-72305200D03*
%TO.N,CODEC_LOUT*%
X124582000Y-74285000D03*
X74645000Y-78206400D03*
%TO.N,CODEC_ROUT*%
X74611100Y-79365000D03*
X124581000Y-75299700D03*
X90512800Y-73621900D03*
%TO.N,DSI_CLK_N*%
X118569000Y-44965000D03*
X76520000Y-37980000D03*
%TO.N,DSI_CLK_P*%
X94348500Y-61823700D03*
X118597000Y-43695000D03*
X68621300Y-61823700D03*
%TO.N,DSI_D0_N*%
X76536900Y-40419300D03*
X118541000Y-48775000D03*
%TO.N,DSI_D0_P*%
X76550800Y-39250000D03*
X118595000Y-47505000D03*
%TO.N,DSI_D1_N*%
X118637000Y-52046100D03*
X76538000Y-43326000D03*
%TO.N,DSI_D1_P*%
X76541200Y-41790000D03*
X118582000Y-50397200D03*
%TO.N,DSI_D2_N*%
X118567000Y-56395000D03*
X76519100Y-45600000D03*
%TO.N,DSI_D2_P*%
X76542200Y-44330000D03*
X118564000Y-55125000D03*
%TO.N,DSI_D3_N*%
X118663000Y-60766200D03*
X76543400Y-48140000D03*
%TO.N,DSI_D3_P*%
X76518000Y-46870000D03*
X118592000Y-58027500D03*
%TO.N,FB_U1*%
X91562800Y-27922200D03*
X74404300Y-22744300D03*
%TO.N,FM_ANT*%
X136752000Y-72928200D03*
X126428000Y-76825000D03*
%TO.N,FM_RSTB*%
X76314200Y-62818200D03*
X118574000Y-76825000D03*
%TO.N,FM_XTAL*%
X126403000Y-78206400D03*
X130066000Y-73208300D03*
%TO.N,GND*%
X59845100Y-20045100D03*
X90397600Y-74982600D03*
X37212100Y-39327100D03*
X25500000Y-22979100D03*
X77793200Y-73378200D03*
X152445000Y-20045100D03*
X75992200Y-64098700D03*
X136196000Y-71717700D03*
X24539900Y-41610000D03*
X100000000Y-26897000D03*
X118585000Y-75299700D03*
X129205000Y-42190200D03*
X50247500Y-38553500D03*
X49217800Y-18135400D03*
X121976000Y-61475000D03*
X111658000Y-18379700D03*
X154150000Y-35459500D03*
X70400000Y-25882100D03*
X72926300Y-86926500D03*
X86604500Y-25880500D03*
X66775600Y-75299700D03*
X124645000Y-25565400D03*
%TO.N,GPIO_IGN_SENSE*%
X126206000Y-22746000D03*
X69065900Y-60154700D03*
X155155000Y-20045100D03*
%TO.N,GPIO_PWR_CTRL*%
X129593000Y-21405000D03*
X68538200Y-60766200D03*
%TO.N,I2C0_SCL*%
X68615500Y-52585000D03*
X126294000Y-72393000D03*
X126525000Y-41764500D03*
%TO.N,I2C0_SDA*%
X126423000Y-40419300D03*
X68640900Y-51315000D03*
X118594000Y-78208000D03*
%TO.N,I2C1_SCL*%
X66796300Y-54733600D03*
X66989800Y-80075200D03*
%TO.N,I2C1_SDA*%
X66795800Y-53855000D03*
X66764400Y-78206400D03*
%TO.N,I2S_BCLK*%
X74686600Y-49410000D03*
X72988600Y-72303600D03*
%TO.N,I2S_DIN_SOM*%
X76509200Y-53220000D03*
X74603100Y-76825000D03*
%TO.N,I2S_DOUT_SOM*%
X72795000Y-75273700D03*
X74699800Y-51950000D03*
%TO.N,I2S_LRCLK*%
X74636000Y-74285000D03*
X74702500Y-51076200D03*
%TO.N,IGN_DEBOUNCE*%
X158163000Y-20036900D03*
X120042000Y-27167800D03*
%TO.N,IGN_SENSE_RAW*%
X120387000Y-19594500D03*
X143187000Y-19157100D03*
%TO.N,MIC_IN*%
X66774000Y-76825000D03*
X66993400Y-84928400D03*
%TO.N,PWM_BL*%
X68634700Y-58935000D03*
X131374000Y-38615000D03*
%TO.N,SDMMC1_D0*%
X19200000Y-45072200D03*
X66766600Y-56395000D03*
%TO.N,TP_INT*%
X76513500Y-54951200D03*
X126380000Y-39545300D03*
%TO.N,TP_RST*%
X76536300Y-55760000D03*
X126394000Y-38261000D03*
%TO.N,U1_SW_NODE*%
X74397600Y-20072400D03*
X99541800Y-18341800D03*
%TO.N,UART_RX*%
X66771500Y-50045000D03*
X53204800Y-39319800D03*
%TO.N,UART_TX*%
X59440800Y-37512600D03*
X66764200Y-49166800D03*
%TO.N,USB1_DM*%
X66796300Y-42425000D03*
X20204800Y-39319800D03*
%TO.N,USB1_DP*%
X26433000Y-37345000D03*
X66830500Y-40419300D03*
%TO.N,USB2_DM*%
X31212100Y-39327100D03*
X66780200Y-44965000D03*
%TO.N,USB2_DP*%
X37427400Y-37345000D03*
X66795600Y-43326000D03*
%TO.N,USB_OTG_DM*%
X66788300Y-47505000D03*
X42204800Y-39319800D03*
%TO.N,USB_OTG_DP*%
X66783600Y-46232700D03*
X48436700Y-37345000D03*
%TO.N,VLED_A*%
X145175000Y-35575100D03*
X120430000Y-37684800D03*
X137384000Y-38324300D03*
%TD*%
%TO.N,+12V_ACC*%
D11*
X140361000Y-20038800D02*
X137821000Y-17498200D01*
X137821000Y-17498200D02*
X24311200Y-17498200D01*
X24311200Y-17498200D02*
X20404400Y-21405000D01*
%TO.N,+12V_FUSED*%
X41711900Y-21688100D02*
X36500000Y-21688100D01*
X43346900Y-20053100D02*
X41711900Y-21688100D01*
%TO.N,+3V3*%
X149650000Y-35485700D02*
X147962000Y-37173200D01*
X147962000Y-37173200D02*
X131372000Y-37173200D01*
%TO.N,+5V_OUT*%
X79373800Y-22128200D02*
X71609800Y-22128200D01*
X71609800Y-22128200D02*
X66564000Y-27174000D01*
%TO.N,+5V_SWITCHED*%
X68406200Y-36638800D02*
X119238000Y-36638800D01*
X119238000Y-36638800D02*
X135802000Y-20074000D01*
%TO.N,CODEC_ROUT*%
X74611100Y-79365000D02*
X84769700Y-79365000D01*
X84769700Y-79365000D02*
X90512800Y-73621900D01*
%TO.N,DSI_CLK_N*%
X111584000Y-37980000D02*
X76520000Y-37980000D01*
X118569000Y-44965000D02*
X111584000Y-37980000D01*
%TO.N,DSI_D0_N*%
X110186000Y-40419300D02*
X118541000Y-48775000D01*
X76536900Y-40419300D02*
X110186000Y-40419300D01*
%TO.N,DSI_D0_P*%
X110340000Y-39250000D02*
X76550800Y-39250000D01*
X118595000Y-47505000D02*
X110340000Y-39250000D01*
%TO.N,DSI_D1_N*%
X109917000Y-43326000D02*
X118637000Y-52046100D01*
X76538000Y-43326000D02*
X109917000Y-43326000D01*
%TO.N,DSI_D1_P*%
X118582000Y-50397200D02*
X109975000Y-41790000D01*
X109975000Y-41790000D02*
X76541200Y-41790000D01*
%TO.N,DSI_D2_N*%
X118567000Y-56395000D02*
X107772000Y-45600000D01*
X107772000Y-45600000D02*
X76519100Y-45600000D01*
%TO.N,DSI_D2_P*%
X107769000Y-44330000D02*
X76542200Y-44330000D01*
X118564000Y-55125000D02*
X107769000Y-44330000D01*
%TO.N,DSI_D3_N*%
X118663000Y-60766200D02*
X89169600Y-60766200D01*
X89169600Y-60766200D02*
X76543400Y-48140000D01*
%TO.N,DSI_D3_P*%
X76518000Y-46870000D02*
X87675500Y-58027500D01*
X87675500Y-58027500D02*
X118592000Y-58027500D01*
%TO.N,GND*%
X34929200Y-41610000D02*
X24539900Y-41610000D01*
X57935400Y-18135400D02*
X49217800Y-18135400D01*
X147419000Y-42190200D02*
X129205000Y-42190200D01*
X86602900Y-25882100D02*
X86604500Y-25880500D01*
X59845100Y-20045100D02*
X57935400Y-18135400D01*
X118238000Y-75647400D02*
X91062400Y-75647400D01*
X124645000Y-25565400D02*
X114556000Y-25565400D01*
X111658000Y-22667600D02*
X104229000Y-22667600D01*
X114556000Y-25565400D02*
X111658000Y-22667600D01*
X70400000Y-25882100D02*
X86602900Y-25882100D01*
X118585000Y-75299700D02*
X122167000Y-71717700D01*
X91062400Y-75647400D02*
X90397600Y-74982600D01*
X104229000Y-22667600D02*
X100000000Y-26897000D01*
X48688300Y-36731300D02*
X39807900Y-36731300D01*
X111658000Y-18379700D02*
X111658000Y-22667600D01*
X50247500Y-38290500D02*
X48688300Y-36731300D01*
X50247500Y-38553500D02*
X50247500Y-38290500D01*
X39807900Y-36731300D02*
X37212100Y-39327100D01*
X118585000Y-75299700D02*
X118238000Y-75647400D01*
X154150000Y-35459500D02*
X147419000Y-42190200D01*
X37212100Y-39327100D02*
X34929200Y-41610000D01*
X122167000Y-71717700D02*
X136196000Y-71717700D01*
%TO.N,USB1_DP*%
X66830500Y-40419300D02*
X62740800Y-36329600D01*
X62740800Y-36329600D02*
X27448400Y-36329600D01*
X27448400Y-36329600D02*
X26433000Y-37345000D01*
%TO.N,USB_OTG_DM*%
X66788300Y-47505000D02*
X50390000Y-47505000D01*
X50390000Y-47505000D02*
X42204800Y-39319800D01*
%TO.N,USB_OTG_DP*%
X48436700Y-37614600D02*
X48436700Y-37345000D01*
X66783600Y-46232700D02*
X57054800Y-46232700D01*
X57054800Y-46232700D02*
X48436700Y-37614600D01*
%TD*%
M02*
