%TF.GenerationSoftware,KiCad,Pcbnew,10.0.5*%
%TF.CreationDate,2026-08-10T00:08:50-04:00*%
%TF.ProjectId,headunit_carrier,68656164-756e-4697-945f-636172726965,rev?*%
%TF.SameCoordinates,Original*%
%TF.FileFunction,Legend,Top*%
%TF.FilePolarity,Positive*%
%FSLAX46Y46*%
G04 Gerber Fmt 4.6, Leading zero omitted, Abs format (unit mm)*
G04 Created by KiCad (PCBNEW 10.0.5) date 2026-08-10 00:08:50*
%MOMM*%
%LPD*%
G01*
G04 APERTURE LIST*
%ADD10C,0.125000*%
%ADD11C,0.120000*%
G04 APERTURE END LIST*
D10*
X151743333Y-34170880D02*
X151695714Y-34218500D01*
X151695714Y-34218500D02*
X151552857Y-34266119D01*
X151552857Y-34266119D02*
X151457619Y-34266119D01*
X151457619Y-34266119D02*
X151314762Y-34218500D01*
X151314762Y-34218500D02*
X151219524Y-34123261D01*
X151219524Y-34123261D02*
X151171905Y-34028023D01*
X151171905Y-34028023D02*
X151124286Y-33837547D01*
X151124286Y-33837547D02*
X151124286Y-33694690D01*
X151124286Y-33694690D02*
X151171905Y-33504214D01*
X151171905Y-33504214D02*
X151219524Y-33408976D01*
X151219524Y-33408976D02*
X151314762Y-33313738D01*
X151314762Y-33313738D02*
X151457619Y-33266119D01*
X151457619Y-33266119D02*
X151552857Y-33266119D01*
X151552857Y-33266119D02*
X151695714Y-33313738D01*
X151695714Y-33313738D02*
X151743333Y-33361357D01*
X152314762Y-33694690D02*
X152219524Y-33647071D01*
X152219524Y-33647071D02*
X152171905Y-33599452D01*
X152171905Y-33599452D02*
X152124286Y-33504214D01*
X152124286Y-33504214D02*
X152124286Y-33456595D01*
X152124286Y-33456595D02*
X152171905Y-33361357D01*
X152171905Y-33361357D02*
X152219524Y-33313738D01*
X152219524Y-33313738D02*
X152314762Y-33266119D01*
X152314762Y-33266119D02*
X152505238Y-33266119D01*
X152505238Y-33266119D02*
X152600476Y-33313738D01*
X152600476Y-33313738D02*
X152648095Y-33361357D01*
X152648095Y-33361357D02*
X152695714Y-33456595D01*
X152695714Y-33456595D02*
X152695714Y-33504214D01*
X152695714Y-33504214D02*
X152648095Y-33599452D01*
X152648095Y-33599452D02*
X152600476Y-33647071D01*
X152600476Y-33647071D02*
X152505238Y-33694690D01*
X152505238Y-33694690D02*
X152314762Y-33694690D01*
X152314762Y-33694690D02*
X152219524Y-33742309D01*
X152219524Y-33742309D02*
X152171905Y-33789928D01*
X152171905Y-33789928D02*
X152124286Y-33885166D01*
X152124286Y-33885166D02*
X152124286Y-34075642D01*
X152124286Y-34075642D02*
X152171905Y-34170880D01*
X152171905Y-34170880D02*
X152219524Y-34218500D01*
X152219524Y-34218500D02*
X152314762Y-34266119D01*
X152314762Y-34266119D02*
X152505238Y-34266119D01*
X152505238Y-34266119D02*
X152600476Y-34218500D01*
X152600476Y-34218500D02*
X152648095Y-34170880D01*
X152648095Y-34170880D02*
X152695714Y-34075642D01*
X152695714Y-34075642D02*
X152695714Y-33885166D01*
X152695714Y-33885166D02*
X152648095Y-33789928D01*
X152648095Y-33789928D02*
X152600476Y-33742309D01*
X152600476Y-33742309D02*
X152505238Y-33694690D01*
X42366666Y-16532309D02*
X42033333Y-16532309D01*
X42033333Y-17056119D02*
X42033333Y-16056119D01*
X42033333Y-16056119D02*
X42509523Y-16056119D01*
X43414285Y-17056119D02*
X42842857Y-17056119D01*
X43128571Y-17056119D02*
X43128571Y-16056119D01*
X43128571Y-16056119D02*
X43033333Y-16198976D01*
X43033333Y-16198976D02*
X42938095Y-16294214D01*
X42938095Y-16294214D02*
X42842857Y-16341833D01*
X70366666Y-81556119D02*
X70366666Y-82270404D01*
X70366666Y-82270404D02*
X70319047Y-82413261D01*
X70319047Y-82413261D02*
X70223809Y-82508500D01*
X70223809Y-82508500D02*
X70080952Y-82556119D01*
X70080952Y-82556119D02*
X69985714Y-82556119D01*
X71271428Y-81889452D02*
X71271428Y-82556119D01*
X71033333Y-81508500D02*
X70795238Y-82222785D01*
X70795238Y-82222785D02*
X71414285Y-82222785D01*
X142533333Y-17056119D02*
X142200000Y-16579928D01*
X141961905Y-17056119D02*
X141961905Y-16056119D01*
X141961905Y-16056119D02*
X142342857Y-16056119D01*
X142342857Y-16056119D02*
X142438095Y-16103738D01*
X142438095Y-16103738D02*
X142485714Y-16151357D01*
X142485714Y-16151357D02*
X142533333Y-16246595D01*
X142533333Y-16246595D02*
X142533333Y-16389452D01*
X142533333Y-16389452D02*
X142485714Y-16484690D01*
X142485714Y-16484690D02*
X142438095Y-16532309D01*
X142438095Y-16532309D02*
X142342857Y-16579928D01*
X142342857Y-16579928D02*
X141961905Y-16579928D01*
X143485714Y-17056119D02*
X142914286Y-17056119D01*
X143200000Y-17056119D02*
X143200000Y-16056119D01*
X143200000Y-16056119D02*
X143104762Y-16198976D01*
X143104762Y-16198976D02*
X143009524Y-16294214D01*
X143009524Y-16294214D02*
X142914286Y-16341833D01*
X80938095Y-68936119D02*
X81509523Y-68936119D01*
X81223809Y-69936119D02*
X81223809Y-68936119D01*
X82366666Y-69936119D02*
X81795238Y-69936119D01*
X82080952Y-69936119D02*
X82080952Y-68936119D01*
X82080952Y-68936119D02*
X81985714Y-69078976D01*
X81985714Y-69078976D02*
X81890476Y-69174214D01*
X81890476Y-69174214D02*
X81795238Y-69221833D01*
X91938095Y-16056119D02*
X91938095Y-16865642D01*
X91938095Y-16865642D02*
X91985714Y-16960880D01*
X91985714Y-16960880D02*
X92033333Y-17008500D01*
X92033333Y-17008500D02*
X92128571Y-17056119D01*
X92128571Y-17056119D02*
X92319047Y-17056119D01*
X92319047Y-17056119D02*
X92414285Y-17008500D01*
X92414285Y-17008500D02*
X92461904Y-16960880D01*
X92461904Y-16960880D02*
X92509523Y-16865642D01*
X92509523Y-16865642D02*
X92509523Y-16056119D01*
X92890476Y-16056119D02*
X93509523Y-16056119D01*
X93509523Y-16056119D02*
X93176190Y-16437071D01*
X93176190Y-16437071D02*
X93319047Y-16437071D01*
X93319047Y-16437071D02*
X93414285Y-16484690D01*
X93414285Y-16484690D02*
X93461904Y-16532309D01*
X93461904Y-16532309D02*
X93509523Y-16627547D01*
X93509523Y-16627547D02*
X93509523Y-16865642D01*
X93509523Y-16865642D02*
X93461904Y-16960880D01*
X93461904Y-16960880D02*
X93414285Y-17008500D01*
X93414285Y-17008500D02*
X93319047Y-17056119D01*
X93319047Y-17056119D02*
X93033333Y-17056119D01*
X93033333Y-17056119D02*
X92938095Y-17008500D01*
X92938095Y-17008500D02*
X92890476Y-16960880D01*
X49361905Y-17056119D02*
X49361905Y-16056119D01*
X49361905Y-16056119D02*
X49600000Y-16056119D01*
X49600000Y-16056119D02*
X49742857Y-16103738D01*
X49742857Y-16103738D02*
X49838095Y-16198976D01*
X49838095Y-16198976D02*
X49885714Y-16294214D01*
X49885714Y-16294214D02*
X49933333Y-16484690D01*
X49933333Y-16484690D02*
X49933333Y-16627547D01*
X49933333Y-16627547D02*
X49885714Y-16818023D01*
X49885714Y-16818023D02*
X49838095Y-16913261D01*
X49838095Y-16913261D02*
X49742857Y-17008500D01*
X49742857Y-17008500D02*
X49600000Y-17056119D01*
X49600000Y-17056119D02*
X49361905Y-17056119D01*
X50885714Y-17056119D02*
X50314286Y-17056119D01*
X50600000Y-17056119D02*
X50600000Y-16056119D01*
X50600000Y-16056119D02*
X50504762Y-16198976D01*
X50504762Y-16198976D02*
X50409524Y-16294214D01*
X50409524Y-16294214D02*
X50314286Y-16341833D01*
X69938095Y-68936119D02*
X69938095Y-69745642D01*
X69938095Y-69745642D02*
X69985714Y-69840880D01*
X69985714Y-69840880D02*
X70033333Y-69888500D01*
X70033333Y-69888500D02*
X70128571Y-69936119D01*
X70128571Y-69936119D02*
X70319047Y-69936119D01*
X70319047Y-69936119D02*
X70414285Y-69888500D01*
X70414285Y-69888500D02*
X70461904Y-69840880D01*
X70461904Y-69840880D02*
X70509523Y-69745642D01*
X70509523Y-69745642D02*
X70509523Y-68936119D01*
X70890476Y-68936119D02*
X71557142Y-68936119D01*
X71557142Y-68936119D02*
X71128571Y-69936119D01*
X76133333Y-25770880D02*
X76085714Y-25818500D01*
X76085714Y-25818500D02*
X75942857Y-25866119D01*
X75942857Y-25866119D02*
X75847619Y-25866119D01*
X75847619Y-25866119D02*
X75704762Y-25818500D01*
X75704762Y-25818500D02*
X75609524Y-25723261D01*
X75609524Y-25723261D02*
X75561905Y-25628023D01*
X75561905Y-25628023D02*
X75514286Y-25437547D01*
X75514286Y-25437547D02*
X75514286Y-25294690D01*
X75514286Y-25294690D02*
X75561905Y-25104214D01*
X75561905Y-25104214D02*
X75609524Y-25008976D01*
X75609524Y-25008976D02*
X75704762Y-24913738D01*
X75704762Y-24913738D02*
X75847619Y-24866119D01*
X75847619Y-24866119D02*
X75942857Y-24866119D01*
X75942857Y-24866119D02*
X76085714Y-24913738D01*
X76085714Y-24913738D02*
X76133333Y-24961357D01*
X77038095Y-24866119D02*
X76561905Y-24866119D01*
X76561905Y-24866119D02*
X76514286Y-25342309D01*
X76514286Y-25342309D02*
X76561905Y-25294690D01*
X76561905Y-25294690D02*
X76657143Y-25247071D01*
X76657143Y-25247071D02*
X76895238Y-25247071D01*
X76895238Y-25247071D02*
X76990476Y-25294690D01*
X76990476Y-25294690D02*
X77038095Y-25342309D01*
X77038095Y-25342309D02*
X77085714Y-25437547D01*
X77085714Y-25437547D02*
X77085714Y-25675642D01*
X77085714Y-25675642D02*
X77038095Y-25770880D01*
X77038095Y-25770880D02*
X76990476Y-25818500D01*
X76990476Y-25818500D02*
X76895238Y-25866119D01*
X76895238Y-25866119D02*
X76657143Y-25866119D01*
X76657143Y-25866119D02*
X76561905Y-25818500D01*
X76561905Y-25818500D02*
X76514286Y-25770880D01*
X123071666Y-33266119D02*
X123071666Y-33980404D01*
X123071666Y-33980404D02*
X123024047Y-34123261D01*
X123024047Y-34123261D02*
X122928809Y-34218500D01*
X122928809Y-34218500D02*
X122785952Y-34266119D01*
X122785952Y-34266119D02*
X122690714Y-34266119D01*
X123500238Y-33361357D02*
X123547857Y-33313738D01*
X123547857Y-33313738D02*
X123643095Y-33266119D01*
X123643095Y-33266119D02*
X123881190Y-33266119D01*
X123881190Y-33266119D02*
X123976428Y-33313738D01*
X123976428Y-33313738D02*
X124024047Y-33361357D01*
X124024047Y-33361357D02*
X124071666Y-33456595D01*
X124071666Y-33456595D02*
X124071666Y-33551833D01*
X124071666Y-33551833D02*
X124024047Y-33694690D01*
X124024047Y-33694690D02*
X123452619Y-34266119D01*
X123452619Y-34266119D02*
X124071666Y-34266119D01*
X144343333Y-34266119D02*
X143867143Y-34266119D01*
X143867143Y-34266119D02*
X143867143Y-33266119D01*
X144629048Y-33361357D02*
X144676667Y-33313738D01*
X144676667Y-33313738D02*
X144771905Y-33266119D01*
X144771905Y-33266119D02*
X145010000Y-33266119D01*
X145010000Y-33266119D02*
X145105238Y-33313738D01*
X145105238Y-33313738D02*
X145152857Y-33361357D01*
X145152857Y-33361357D02*
X145200476Y-33456595D01*
X145200476Y-33456595D02*
X145200476Y-33551833D01*
X145200476Y-33551833D02*
X145152857Y-33694690D01*
X145152857Y-33694690D02*
X144581429Y-34266119D01*
X144581429Y-34266119D02*
X145200476Y-34266119D01*
X68733333Y-25770880D02*
X68685714Y-25818500D01*
X68685714Y-25818500D02*
X68542857Y-25866119D01*
X68542857Y-25866119D02*
X68447619Y-25866119D01*
X68447619Y-25866119D02*
X68304762Y-25818500D01*
X68304762Y-25818500D02*
X68209524Y-25723261D01*
X68209524Y-25723261D02*
X68161905Y-25628023D01*
X68161905Y-25628023D02*
X68114286Y-25437547D01*
X68114286Y-25437547D02*
X68114286Y-25294690D01*
X68114286Y-25294690D02*
X68161905Y-25104214D01*
X68161905Y-25104214D02*
X68209524Y-25008976D01*
X68209524Y-25008976D02*
X68304762Y-24913738D01*
X68304762Y-24913738D02*
X68447619Y-24866119D01*
X68447619Y-24866119D02*
X68542857Y-24866119D01*
X68542857Y-24866119D02*
X68685714Y-24913738D01*
X68685714Y-24913738D02*
X68733333Y-24961357D01*
X69590476Y-25199452D02*
X69590476Y-25866119D01*
X69352381Y-24818500D02*
X69114286Y-25532785D01*
X69114286Y-25532785D02*
X69733333Y-25532785D01*
X91938095Y-68936119D02*
X92509523Y-68936119D01*
X92223809Y-69936119D02*
X92223809Y-68936119D01*
X92795238Y-69031357D02*
X92842857Y-68983738D01*
X92842857Y-68983738D02*
X92938095Y-68936119D01*
X92938095Y-68936119D02*
X93176190Y-68936119D01*
X93176190Y-68936119D02*
X93271428Y-68983738D01*
X93271428Y-68983738D02*
X93319047Y-69031357D01*
X93319047Y-69031357D02*
X93366666Y-69126595D01*
X93366666Y-69126595D02*
X93366666Y-69221833D01*
X93366666Y-69221833D02*
X93319047Y-69364690D01*
X93319047Y-69364690D02*
X92747619Y-69936119D01*
X92747619Y-69936119D02*
X93366666Y-69936119D01*
X22166666Y-16056119D02*
X22166666Y-16770404D01*
X22166666Y-16770404D02*
X22119047Y-16913261D01*
X22119047Y-16913261D02*
X22023809Y-17008500D01*
X22023809Y-17008500D02*
X21880952Y-17056119D01*
X21880952Y-17056119D02*
X21785714Y-17056119D01*
X23166666Y-17056119D02*
X22595238Y-17056119D01*
X22880952Y-17056119D02*
X22880952Y-16056119D01*
X22880952Y-16056119D02*
X22785714Y-16198976D01*
X22785714Y-16198976D02*
X22690476Y-16294214D01*
X22690476Y-16294214D02*
X22595238Y-16341833D01*
X44166666Y-33266119D02*
X44166666Y-33980404D01*
X44166666Y-33980404D02*
X44119047Y-34123261D01*
X44119047Y-34123261D02*
X44023809Y-34218500D01*
X44023809Y-34218500D02*
X43880952Y-34266119D01*
X43880952Y-34266119D02*
X43785714Y-34266119D01*
X44785714Y-33694690D02*
X44690476Y-33647071D01*
X44690476Y-33647071D02*
X44642857Y-33599452D01*
X44642857Y-33599452D02*
X44595238Y-33504214D01*
X44595238Y-33504214D02*
X44595238Y-33456595D01*
X44595238Y-33456595D02*
X44642857Y-33361357D01*
X44642857Y-33361357D02*
X44690476Y-33313738D01*
X44690476Y-33313738D02*
X44785714Y-33266119D01*
X44785714Y-33266119D02*
X44976190Y-33266119D01*
X44976190Y-33266119D02*
X45071428Y-33313738D01*
X45071428Y-33313738D02*
X45119047Y-33361357D01*
X45119047Y-33361357D02*
X45166666Y-33456595D01*
X45166666Y-33456595D02*
X45166666Y-33504214D01*
X45166666Y-33504214D02*
X45119047Y-33599452D01*
X45119047Y-33599452D02*
X45071428Y-33647071D01*
X45071428Y-33647071D02*
X44976190Y-33694690D01*
X44976190Y-33694690D02*
X44785714Y-33694690D01*
X44785714Y-33694690D02*
X44690476Y-33742309D01*
X44690476Y-33742309D02*
X44642857Y-33789928D01*
X44642857Y-33789928D02*
X44595238Y-33885166D01*
X44595238Y-33885166D02*
X44595238Y-34075642D01*
X44595238Y-34075642D02*
X44642857Y-34170880D01*
X44642857Y-34170880D02*
X44690476Y-34218500D01*
X44690476Y-34218500D02*
X44785714Y-34266119D01*
X44785714Y-34266119D02*
X44976190Y-34266119D01*
X44976190Y-34266119D02*
X45071428Y-34218500D01*
X45071428Y-34218500D02*
X45119047Y-34170880D01*
X45119047Y-34170880D02*
X45166666Y-34075642D01*
X45166666Y-34075642D02*
X45166666Y-33885166D01*
X45166666Y-33885166D02*
X45119047Y-33789928D01*
X45119047Y-33789928D02*
X45071428Y-33742309D01*
X45071428Y-33742309D02*
X44976190Y-33694690D01*
X132738095Y-16056119D02*
X132738095Y-16865642D01*
X132738095Y-16865642D02*
X132785714Y-16960880D01*
X132785714Y-16960880D02*
X132833333Y-17008500D01*
X132833333Y-17008500D02*
X132928571Y-17056119D01*
X132928571Y-17056119D02*
X133119047Y-17056119D01*
X133119047Y-17056119D02*
X133214285Y-17008500D01*
X133214285Y-17008500D02*
X133261904Y-16960880D01*
X133261904Y-16960880D02*
X133309523Y-16865642D01*
X133309523Y-16865642D02*
X133309523Y-16056119D01*
X134261904Y-16056119D02*
X133785714Y-16056119D01*
X133785714Y-16056119D02*
X133738095Y-16532309D01*
X133738095Y-16532309D02*
X133785714Y-16484690D01*
X133785714Y-16484690D02*
X133880952Y-16437071D01*
X133880952Y-16437071D02*
X134119047Y-16437071D01*
X134119047Y-16437071D02*
X134214285Y-16484690D01*
X134214285Y-16484690D02*
X134261904Y-16532309D01*
X134261904Y-16532309D02*
X134309523Y-16627547D01*
X134309523Y-16627547D02*
X134309523Y-16865642D01*
X134309523Y-16865642D02*
X134261904Y-16960880D01*
X134261904Y-16960880D02*
X134214285Y-17008500D01*
X134214285Y-17008500D02*
X134119047Y-17056119D01*
X134119047Y-17056119D02*
X133880952Y-17056119D01*
X133880952Y-17056119D02*
X133785714Y-17008500D01*
X133785714Y-17008500D02*
X133738095Y-16960880D01*
X121738095Y-16056119D02*
X121738095Y-16865642D01*
X121738095Y-16865642D02*
X121785714Y-16960880D01*
X121785714Y-16960880D02*
X121833333Y-17008500D01*
X121833333Y-17008500D02*
X121928571Y-17056119D01*
X121928571Y-17056119D02*
X122119047Y-17056119D01*
X122119047Y-17056119D02*
X122214285Y-17008500D01*
X122214285Y-17008500D02*
X122261904Y-16960880D01*
X122261904Y-16960880D02*
X122309523Y-16865642D01*
X122309523Y-16865642D02*
X122309523Y-16056119D01*
X123214285Y-16389452D02*
X123214285Y-17056119D01*
X122976190Y-16008500D02*
X122738095Y-16722785D01*
X122738095Y-16722785D02*
X123357142Y-16722785D01*
X22166666Y-33266119D02*
X22166666Y-33980404D01*
X22166666Y-33980404D02*
X22119047Y-34123261D01*
X22119047Y-34123261D02*
X22023809Y-34218500D01*
X22023809Y-34218500D02*
X21880952Y-34266119D01*
X21880952Y-34266119D02*
X21785714Y-34266119D01*
X23071428Y-33266119D02*
X22880952Y-33266119D01*
X22880952Y-33266119D02*
X22785714Y-33313738D01*
X22785714Y-33313738D02*
X22738095Y-33361357D01*
X22738095Y-33361357D02*
X22642857Y-33504214D01*
X22642857Y-33504214D02*
X22595238Y-33694690D01*
X22595238Y-33694690D02*
X22595238Y-34075642D01*
X22595238Y-34075642D02*
X22642857Y-34170880D01*
X22642857Y-34170880D02*
X22690476Y-34218500D01*
X22690476Y-34218500D02*
X22785714Y-34266119D01*
X22785714Y-34266119D02*
X22976190Y-34266119D01*
X22976190Y-34266119D02*
X23071428Y-34218500D01*
X23071428Y-34218500D02*
X23119047Y-34170880D01*
X23119047Y-34170880D02*
X23166666Y-34075642D01*
X23166666Y-34075642D02*
X23166666Y-33837547D01*
X23166666Y-33837547D02*
X23119047Y-33742309D01*
X23119047Y-33742309D02*
X23071428Y-33694690D01*
X23071428Y-33694690D02*
X22976190Y-33647071D01*
X22976190Y-33647071D02*
X22785714Y-33647071D01*
X22785714Y-33647071D02*
X22690476Y-33694690D01*
X22690476Y-33694690D02*
X22642857Y-33742309D01*
X22642857Y-33742309D02*
X22595238Y-33837547D01*
X33166666Y-33266119D02*
X33166666Y-33980404D01*
X33166666Y-33980404D02*
X33119047Y-34123261D01*
X33119047Y-34123261D02*
X33023809Y-34218500D01*
X33023809Y-34218500D02*
X32880952Y-34266119D01*
X32880952Y-34266119D02*
X32785714Y-34266119D01*
X33547619Y-33266119D02*
X34214285Y-33266119D01*
X34214285Y-33266119D02*
X33785714Y-34266119D01*
X101733333Y-17056119D02*
X101257143Y-17056119D01*
X101257143Y-17056119D02*
X101257143Y-16056119D01*
X102590476Y-17056119D02*
X102019048Y-17056119D01*
X102304762Y-17056119D02*
X102304762Y-16056119D01*
X102304762Y-16056119D02*
X102209524Y-16198976D01*
X102209524Y-16198976D02*
X102114286Y-16294214D01*
X102114286Y-16294214D02*
X102019048Y-16341833D01*
X157333333Y-17056119D02*
X157000000Y-16579928D01*
X156761905Y-17056119D02*
X156761905Y-16056119D01*
X156761905Y-16056119D02*
X157142857Y-16056119D01*
X157142857Y-16056119D02*
X157238095Y-16103738D01*
X157238095Y-16103738D02*
X157285714Y-16151357D01*
X157285714Y-16151357D02*
X157333333Y-16246595D01*
X157333333Y-16246595D02*
X157333333Y-16389452D01*
X157333333Y-16389452D02*
X157285714Y-16484690D01*
X157285714Y-16484690D02*
X157238095Y-16532309D01*
X157238095Y-16532309D02*
X157142857Y-16579928D01*
X157142857Y-16579928D02*
X156761905Y-16579928D01*
X157666667Y-16056119D02*
X158285714Y-16056119D01*
X158285714Y-16056119D02*
X157952381Y-16437071D01*
X157952381Y-16437071D02*
X158095238Y-16437071D01*
X158095238Y-16437071D02*
X158190476Y-16484690D01*
X158190476Y-16484690D02*
X158238095Y-16532309D01*
X158238095Y-16532309D02*
X158285714Y-16627547D01*
X158285714Y-16627547D02*
X158285714Y-16865642D01*
X158285714Y-16865642D02*
X158238095Y-16960880D01*
X158238095Y-16960880D02*
X158190476Y-17008500D01*
X158190476Y-17008500D02*
X158095238Y-17056119D01*
X158095238Y-17056119D02*
X157809524Y-17056119D01*
X157809524Y-17056119D02*
X157714286Y-17008500D01*
X157714286Y-17008500D02*
X157666667Y-16960880D01*
X83533333Y-25770880D02*
X83485714Y-25818500D01*
X83485714Y-25818500D02*
X83342857Y-25866119D01*
X83342857Y-25866119D02*
X83247619Y-25866119D01*
X83247619Y-25866119D02*
X83104762Y-25818500D01*
X83104762Y-25818500D02*
X83009524Y-25723261D01*
X83009524Y-25723261D02*
X82961905Y-25628023D01*
X82961905Y-25628023D02*
X82914286Y-25437547D01*
X82914286Y-25437547D02*
X82914286Y-25294690D01*
X82914286Y-25294690D02*
X82961905Y-25104214D01*
X82961905Y-25104214D02*
X83009524Y-25008976D01*
X83009524Y-25008976D02*
X83104762Y-24913738D01*
X83104762Y-24913738D02*
X83247619Y-24866119D01*
X83247619Y-24866119D02*
X83342857Y-24866119D01*
X83342857Y-24866119D02*
X83485714Y-24913738D01*
X83485714Y-24913738D02*
X83533333Y-24961357D01*
X84390476Y-24866119D02*
X84200000Y-24866119D01*
X84200000Y-24866119D02*
X84104762Y-24913738D01*
X84104762Y-24913738D02*
X84057143Y-24961357D01*
X84057143Y-24961357D02*
X83961905Y-25104214D01*
X83961905Y-25104214D02*
X83914286Y-25294690D01*
X83914286Y-25294690D02*
X83914286Y-25675642D01*
X83914286Y-25675642D02*
X83961905Y-25770880D01*
X83961905Y-25770880D02*
X84009524Y-25818500D01*
X84009524Y-25818500D02*
X84104762Y-25866119D01*
X84104762Y-25866119D02*
X84295238Y-25866119D01*
X84295238Y-25866119D02*
X84390476Y-25818500D01*
X84390476Y-25818500D02*
X84438095Y-25770880D01*
X84438095Y-25770880D02*
X84485714Y-25675642D01*
X84485714Y-25675642D02*
X84485714Y-25437547D01*
X84485714Y-25437547D02*
X84438095Y-25342309D01*
X84438095Y-25342309D02*
X84390476Y-25294690D01*
X84390476Y-25294690D02*
X84295238Y-25247071D01*
X84295238Y-25247071D02*
X84104762Y-25247071D01*
X84104762Y-25247071D02*
X84009524Y-25294690D01*
X84009524Y-25294690D02*
X83961905Y-25342309D01*
X83961905Y-25342309D02*
X83914286Y-25437547D01*
X103366666Y-68936119D02*
X103366666Y-69650404D01*
X103366666Y-69650404D02*
X103319047Y-69793261D01*
X103319047Y-69793261D02*
X103223809Y-69888500D01*
X103223809Y-69888500D02*
X103080952Y-69936119D01*
X103080952Y-69936119D02*
X102985714Y-69936119D01*
X103747619Y-68936119D02*
X104366666Y-68936119D01*
X104366666Y-68936119D02*
X104033333Y-69317071D01*
X104033333Y-69317071D02*
X104176190Y-69317071D01*
X104176190Y-69317071D02*
X104271428Y-69364690D01*
X104271428Y-69364690D02*
X104319047Y-69412309D01*
X104319047Y-69412309D02*
X104366666Y-69507547D01*
X104366666Y-69507547D02*
X104366666Y-69745642D01*
X104366666Y-69745642D02*
X104319047Y-69840880D01*
X104319047Y-69840880D02*
X104271428Y-69888500D01*
X104271428Y-69888500D02*
X104176190Y-69936119D01*
X104176190Y-69936119D02*
X103890476Y-69936119D01*
X103890476Y-69936119D02*
X103795238Y-69888500D01*
X103795238Y-69888500D02*
X103747619Y-69840880D01*
X98333333Y-25866119D02*
X98000000Y-25389928D01*
X97761905Y-25866119D02*
X97761905Y-24866119D01*
X97761905Y-24866119D02*
X98142857Y-24866119D01*
X98142857Y-24866119D02*
X98238095Y-24913738D01*
X98238095Y-24913738D02*
X98285714Y-24961357D01*
X98285714Y-24961357D02*
X98333333Y-25056595D01*
X98333333Y-25056595D02*
X98333333Y-25199452D01*
X98333333Y-25199452D02*
X98285714Y-25294690D01*
X98285714Y-25294690D02*
X98238095Y-25342309D01*
X98238095Y-25342309D02*
X98142857Y-25389928D01*
X98142857Y-25389928D02*
X97761905Y-25389928D01*
X99238095Y-24866119D02*
X98761905Y-24866119D01*
X98761905Y-24866119D02*
X98714286Y-25342309D01*
X98714286Y-25342309D02*
X98761905Y-25294690D01*
X98761905Y-25294690D02*
X98857143Y-25247071D01*
X98857143Y-25247071D02*
X99095238Y-25247071D01*
X99095238Y-25247071D02*
X99190476Y-25294690D01*
X99190476Y-25294690D02*
X99238095Y-25342309D01*
X99238095Y-25342309D02*
X99285714Y-25437547D01*
X99285714Y-25437547D02*
X99285714Y-25675642D01*
X99285714Y-25675642D02*
X99238095Y-25770880D01*
X99238095Y-25770880D02*
X99190476Y-25818500D01*
X99190476Y-25818500D02*
X99095238Y-25866119D01*
X99095238Y-25866119D02*
X98857143Y-25866119D01*
X98857143Y-25866119D02*
X98761905Y-25818500D01*
X98761905Y-25818500D02*
X98714286Y-25770880D01*
X131223809Y-69459928D02*
X131223809Y-69936119D01*
X130890476Y-68936119D02*
X131223809Y-69459928D01*
X131223809Y-69459928D02*
X131557142Y-68936119D01*
X132414285Y-69936119D02*
X131842857Y-69936119D01*
X132128571Y-69936119D02*
X132128571Y-68936119D01*
X132128571Y-68936119D02*
X132033333Y-69078976D01*
X132033333Y-69078976D02*
X131938095Y-69174214D01*
X131938095Y-69174214D02*
X131842857Y-69221833D01*
X20533333Y-24500880D02*
X20485714Y-24548500D01*
X20485714Y-24548500D02*
X20342857Y-24596119D01*
X20342857Y-24596119D02*
X20247619Y-24596119D01*
X20247619Y-24596119D02*
X20104762Y-24548500D01*
X20104762Y-24548500D02*
X20009524Y-24453261D01*
X20009524Y-24453261D02*
X19961905Y-24358023D01*
X19961905Y-24358023D02*
X19914286Y-24167547D01*
X19914286Y-24167547D02*
X19914286Y-24024690D01*
X19914286Y-24024690D02*
X19961905Y-23834214D01*
X19961905Y-23834214D02*
X20009524Y-23738976D01*
X20009524Y-23738976D02*
X20104762Y-23643738D01*
X20104762Y-23643738D02*
X20247619Y-23596119D01*
X20247619Y-23596119D02*
X20342857Y-23596119D01*
X20342857Y-23596119D02*
X20485714Y-23643738D01*
X20485714Y-23643738D02*
X20533333Y-23691357D01*
X20914286Y-23691357D02*
X20961905Y-23643738D01*
X20961905Y-23643738D02*
X21057143Y-23596119D01*
X21057143Y-23596119D02*
X21295238Y-23596119D01*
X21295238Y-23596119D02*
X21390476Y-23643738D01*
X21390476Y-23643738D02*
X21438095Y-23691357D01*
X21438095Y-23691357D02*
X21485714Y-23786595D01*
X21485714Y-23786595D02*
X21485714Y-23881833D01*
X21485714Y-23881833D02*
X21438095Y-24024690D01*
X21438095Y-24024690D02*
X20866667Y-24596119D01*
X20866667Y-24596119D02*
X21485714Y-24596119D01*
X57333333Y-16960880D02*
X57285714Y-17008500D01*
X57285714Y-17008500D02*
X57142857Y-17056119D01*
X57142857Y-17056119D02*
X57047619Y-17056119D01*
X57047619Y-17056119D02*
X56904762Y-17008500D01*
X56904762Y-17008500D02*
X56809524Y-16913261D01*
X56809524Y-16913261D02*
X56761905Y-16818023D01*
X56761905Y-16818023D02*
X56714286Y-16627547D01*
X56714286Y-16627547D02*
X56714286Y-16484690D01*
X56714286Y-16484690D02*
X56761905Y-16294214D01*
X56761905Y-16294214D02*
X56809524Y-16198976D01*
X56809524Y-16198976D02*
X56904762Y-16103738D01*
X56904762Y-16103738D02*
X57047619Y-16056119D01*
X57047619Y-16056119D02*
X57142857Y-16056119D01*
X57142857Y-16056119D02*
X57285714Y-16103738D01*
X57285714Y-16103738D02*
X57333333Y-16151357D01*
X58285714Y-17056119D02*
X57714286Y-17056119D01*
X58000000Y-17056119D02*
X58000000Y-16056119D01*
X58000000Y-16056119D02*
X57904762Y-16198976D01*
X57904762Y-16198976D02*
X57809524Y-16294214D01*
X57809524Y-16294214D02*
X57714286Y-16341833D01*
X69938095Y-16056119D02*
X69938095Y-16865642D01*
X69938095Y-16865642D02*
X69985714Y-16960880D01*
X69985714Y-16960880D02*
X70033333Y-17008500D01*
X70033333Y-17008500D02*
X70128571Y-17056119D01*
X70128571Y-17056119D02*
X70319047Y-17056119D01*
X70319047Y-17056119D02*
X70414285Y-17008500D01*
X70414285Y-17008500D02*
X70461904Y-16960880D01*
X70461904Y-16960880D02*
X70509523Y-16865642D01*
X70509523Y-16865642D02*
X70509523Y-16056119D01*
X71509523Y-17056119D02*
X70938095Y-17056119D01*
X71223809Y-17056119D02*
X71223809Y-16056119D01*
X71223809Y-16056119D02*
X71128571Y-16198976D01*
X71128571Y-16198976D02*
X71033333Y-16294214D01*
X71033333Y-16294214D02*
X70938095Y-16341833D01*
X69795857Y-34218500D02*
X69938714Y-34266119D01*
X69938714Y-34266119D02*
X70176809Y-34266119D01*
X70176809Y-34266119D02*
X70272047Y-34218500D01*
X70272047Y-34218500D02*
X70319666Y-34170880D01*
X70319666Y-34170880D02*
X70367285Y-34075642D01*
X70367285Y-34075642D02*
X70367285Y-33980404D01*
X70367285Y-33980404D02*
X70319666Y-33885166D01*
X70319666Y-33885166D02*
X70272047Y-33837547D01*
X70272047Y-33837547D02*
X70176809Y-33789928D01*
X70176809Y-33789928D02*
X69986333Y-33742309D01*
X69986333Y-33742309D02*
X69891095Y-33694690D01*
X69891095Y-33694690D02*
X69843476Y-33647071D01*
X69843476Y-33647071D02*
X69795857Y-33551833D01*
X69795857Y-33551833D02*
X69795857Y-33456595D01*
X69795857Y-33456595D02*
X69843476Y-33361357D01*
X69843476Y-33361357D02*
X69891095Y-33313738D01*
X69891095Y-33313738D02*
X69986333Y-33266119D01*
X69986333Y-33266119D02*
X70224428Y-33266119D01*
X70224428Y-33266119D02*
X70367285Y-33313738D01*
X70986333Y-33266119D02*
X71176809Y-33266119D01*
X71176809Y-33266119D02*
X71272047Y-33313738D01*
X71272047Y-33313738D02*
X71367285Y-33408976D01*
X71367285Y-33408976D02*
X71414904Y-33599452D01*
X71414904Y-33599452D02*
X71414904Y-33932785D01*
X71414904Y-33932785D02*
X71367285Y-34123261D01*
X71367285Y-34123261D02*
X71272047Y-34218500D01*
X71272047Y-34218500D02*
X71176809Y-34266119D01*
X71176809Y-34266119D02*
X70986333Y-34266119D01*
X70986333Y-34266119D02*
X70891095Y-34218500D01*
X70891095Y-34218500D02*
X70795857Y-34123261D01*
X70795857Y-34123261D02*
X70748238Y-33932785D01*
X70748238Y-33932785D02*
X70748238Y-33599452D01*
X70748238Y-33599452D02*
X70795857Y-33408976D01*
X70795857Y-33408976D02*
X70891095Y-33313738D01*
X70891095Y-33313738D02*
X70986333Y-33266119D01*
X71843476Y-34266119D02*
X71843476Y-33266119D01*
X71843476Y-33266119D02*
X72176809Y-33980404D01*
X72176809Y-33980404D02*
X72510142Y-33266119D01*
X72510142Y-33266119D02*
X72510142Y-34266119D01*
X73510142Y-34266119D02*
X72938714Y-34266119D01*
X73224428Y-34266119D02*
X73224428Y-33266119D01*
X73224428Y-33266119D02*
X73129190Y-33408976D01*
X73129190Y-33408976D02*
X73033952Y-33504214D01*
X73033952Y-33504214D02*
X72938714Y-33551833D01*
X121738095Y-68936119D02*
X121738095Y-69745642D01*
X121738095Y-69745642D02*
X121785714Y-69840880D01*
X121785714Y-69840880D02*
X121833333Y-69888500D01*
X121833333Y-69888500D02*
X121928571Y-69936119D01*
X121928571Y-69936119D02*
X122119047Y-69936119D01*
X122119047Y-69936119D02*
X122214285Y-69888500D01*
X122214285Y-69888500D02*
X122261904Y-69840880D01*
X122261904Y-69840880D02*
X122309523Y-69745642D01*
X122309523Y-69745642D02*
X122309523Y-68936119D01*
X122928571Y-69364690D02*
X122833333Y-69317071D01*
X122833333Y-69317071D02*
X122785714Y-69269452D01*
X122785714Y-69269452D02*
X122738095Y-69174214D01*
X122738095Y-69174214D02*
X122738095Y-69126595D01*
X122738095Y-69126595D02*
X122785714Y-69031357D01*
X122785714Y-69031357D02*
X122833333Y-68983738D01*
X122833333Y-68983738D02*
X122928571Y-68936119D01*
X122928571Y-68936119D02*
X123119047Y-68936119D01*
X123119047Y-68936119D02*
X123214285Y-68983738D01*
X123214285Y-68983738D02*
X123261904Y-69031357D01*
X123261904Y-69031357D02*
X123309523Y-69126595D01*
X123309523Y-69126595D02*
X123309523Y-69174214D01*
X123309523Y-69174214D02*
X123261904Y-69269452D01*
X123261904Y-69269452D02*
X123214285Y-69317071D01*
X123214285Y-69317071D02*
X123119047Y-69364690D01*
X123119047Y-69364690D02*
X122928571Y-69364690D01*
X122928571Y-69364690D02*
X122833333Y-69412309D01*
X122833333Y-69412309D02*
X122785714Y-69459928D01*
X122785714Y-69459928D02*
X122738095Y-69555166D01*
X122738095Y-69555166D02*
X122738095Y-69745642D01*
X122738095Y-69745642D02*
X122785714Y-69840880D01*
X122785714Y-69840880D02*
X122833333Y-69888500D01*
X122833333Y-69888500D02*
X122928571Y-69936119D01*
X122928571Y-69936119D02*
X123119047Y-69936119D01*
X123119047Y-69936119D02*
X123214285Y-69888500D01*
X123214285Y-69888500D02*
X123261904Y-69840880D01*
X123261904Y-69840880D02*
X123309523Y-69745642D01*
X123309523Y-69745642D02*
X123309523Y-69555166D01*
X123309523Y-69555166D02*
X123261904Y-69459928D01*
X123261904Y-69459928D02*
X123214285Y-69412309D01*
X123214285Y-69412309D02*
X123119047Y-69364690D01*
X149933333Y-17056119D02*
X149600000Y-16579928D01*
X149361905Y-17056119D02*
X149361905Y-16056119D01*
X149361905Y-16056119D02*
X149742857Y-16056119D01*
X149742857Y-16056119D02*
X149838095Y-16103738D01*
X149838095Y-16103738D02*
X149885714Y-16151357D01*
X149885714Y-16151357D02*
X149933333Y-16246595D01*
X149933333Y-16246595D02*
X149933333Y-16389452D01*
X149933333Y-16389452D02*
X149885714Y-16484690D01*
X149885714Y-16484690D02*
X149838095Y-16532309D01*
X149838095Y-16532309D02*
X149742857Y-16579928D01*
X149742857Y-16579928D02*
X149361905Y-16579928D01*
X150314286Y-16151357D02*
X150361905Y-16103738D01*
X150361905Y-16103738D02*
X150457143Y-16056119D01*
X150457143Y-16056119D02*
X150695238Y-16056119D01*
X150695238Y-16056119D02*
X150790476Y-16103738D01*
X150790476Y-16103738D02*
X150838095Y-16151357D01*
X150838095Y-16151357D02*
X150885714Y-16246595D01*
X150885714Y-16246595D02*
X150885714Y-16341833D01*
X150885714Y-16341833D02*
X150838095Y-16484690D01*
X150838095Y-16484690D02*
X150266667Y-17056119D01*
X150266667Y-17056119D02*
X150885714Y-17056119D01*
X80938095Y-16056119D02*
X80938095Y-16865642D01*
X80938095Y-16865642D02*
X80985714Y-16960880D01*
X80985714Y-16960880D02*
X81033333Y-17008500D01*
X81033333Y-17008500D02*
X81128571Y-17056119D01*
X81128571Y-17056119D02*
X81319047Y-17056119D01*
X81319047Y-17056119D02*
X81414285Y-17008500D01*
X81414285Y-17008500D02*
X81461904Y-16960880D01*
X81461904Y-16960880D02*
X81509523Y-16865642D01*
X81509523Y-16865642D02*
X81509523Y-16056119D01*
X81938095Y-16151357D02*
X81985714Y-16103738D01*
X81985714Y-16103738D02*
X82080952Y-16056119D01*
X82080952Y-16056119D02*
X82319047Y-16056119D01*
X82319047Y-16056119D02*
X82414285Y-16103738D01*
X82414285Y-16103738D02*
X82461904Y-16151357D01*
X82461904Y-16151357D02*
X82509523Y-16246595D01*
X82509523Y-16246595D02*
X82509523Y-16341833D01*
X82509523Y-16341833D02*
X82461904Y-16484690D01*
X82461904Y-16484690D02*
X81890476Y-17056119D01*
X81890476Y-17056119D02*
X82509523Y-17056119D01*
X19438095Y-41758500D02*
X19580952Y-41806119D01*
X19580952Y-41806119D02*
X19819047Y-41806119D01*
X19819047Y-41806119D02*
X19914285Y-41758500D01*
X19914285Y-41758500D02*
X19961904Y-41710880D01*
X19961904Y-41710880D02*
X20009523Y-41615642D01*
X20009523Y-41615642D02*
X20009523Y-41520404D01*
X20009523Y-41520404D02*
X19961904Y-41425166D01*
X19961904Y-41425166D02*
X19914285Y-41377547D01*
X19914285Y-41377547D02*
X19819047Y-41329928D01*
X19819047Y-41329928D02*
X19628571Y-41282309D01*
X19628571Y-41282309D02*
X19533333Y-41234690D01*
X19533333Y-41234690D02*
X19485714Y-41187071D01*
X19485714Y-41187071D02*
X19438095Y-41091833D01*
X19438095Y-41091833D02*
X19438095Y-40996595D01*
X19438095Y-40996595D02*
X19485714Y-40901357D01*
X19485714Y-40901357D02*
X19533333Y-40853738D01*
X19533333Y-40853738D02*
X19628571Y-40806119D01*
X19628571Y-40806119D02*
X19866666Y-40806119D01*
X19866666Y-40806119D02*
X20009523Y-40853738D01*
X20438095Y-41806119D02*
X20438095Y-40806119D01*
X20438095Y-40806119D02*
X20676190Y-40806119D01*
X20676190Y-40806119D02*
X20819047Y-40853738D01*
X20819047Y-40853738D02*
X20914285Y-40948976D01*
X20914285Y-40948976D02*
X20961904Y-41044214D01*
X20961904Y-41044214D02*
X21009523Y-41234690D01*
X21009523Y-41234690D02*
X21009523Y-41377547D01*
X21009523Y-41377547D02*
X20961904Y-41568023D01*
X20961904Y-41568023D02*
X20914285Y-41663261D01*
X20914285Y-41663261D02*
X20819047Y-41758500D01*
X20819047Y-41758500D02*
X20676190Y-41806119D01*
X20676190Y-41806119D02*
X20438095Y-41806119D01*
X21961904Y-41806119D02*
X21390476Y-41806119D01*
X21676190Y-41806119D02*
X21676190Y-40806119D01*
X21676190Y-40806119D02*
X21580952Y-40948976D01*
X21580952Y-40948976D02*
X21485714Y-41044214D01*
X21485714Y-41044214D02*
X21390476Y-41091833D01*
X138766666Y-68936119D02*
X138766666Y-69650404D01*
X138766666Y-69650404D02*
X138719047Y-69793261D01*
X138719047Y-69793261D02*
X138623809Y-69888500D01*
X138623809Y-69888500D02*
X138480952Y-69936119D01*
X138480952Y-69936119D02*
X138385714Y-69936119D01*
X139719047Y-68936119D02*
X139242857Y-68936119D01*
X139242857Y-68936119D02*
X139195238Y-69412309D01*
X139195238Y-69412309D02*
X139242857Y-69364690D01*
X139242857Y-69364690D02*
X139338095Y-69317071D01*
X139338095Y-69317071D02*
X139576190Y-69317071D01*
X139576190Y-69317071D02*
X139671428Y-69364690D01*
X139671428Y-69364690D02*
X139719047Y-69412309D01*
X139719047Y-69412309D02*
X139766666Y-69507547D01*
X139766666Y-69507547D02*
X139766666Y-69745642D01*
X139766666Y-69745642D02*
X139719047Y-69840880D01*
X139719047Y-69840880D02*
X139671428Y-69888500D01*
X139671428Y-69888500D02*
X139576190Y-69936119D01*
X139576190Y-69936119D02*
X139338095Y-69936119D01*
X139338095Y-69936119D02*
X139242857Y-69888500D01*
X139242857Y-69888500D02*
X139195238Y-69840880D01*
X109133333Y-16960880D02*
X109085714Y-17008500D01*
X109085714Y-17008500D02*
X108942857Y-17056119D01*
X108942857Y-17056119D02*
X108847619Y-17056119D01*
X108847619Y-17056119D02*
X108704762Y-17008500D01*
X108704762Y-17008500D02*
X108609524Y-16913261D01*
X108609524Y-16913261D02*
X108561905Y-16818023D01*
X108561905Y-16818023D02*
X108514286Y-16627547D01*
X108514286Y-16627547D02*
X108514286Y-16484690D01*
X108514286Y-16484690D02*
X108561905Y-16294214D01*
X108561905Y-16294214D02*
X108609524Y-16198976D01*
X108609524Y-16198976D02*
X108704762Y-16103738D01*
X108704762Y-16103738D02*
X108847619Y-16056119D01*
X108847619Y-16056119D02*
X108942857Y-16056119D01*
X108942857Y-16056119D02*
X109085714Y-16103738D01*
X109085714Y-16103738D02*
X109133333Y-16151357D01*
X109466667Y-16056119D02*
X110085714Y-16056119D01*
X110085714Y-16056119D02*
X109752381Y-16437071D01*
X109752381Y-16437071D02*
X109895238Y-16437071D01*
X109895238Y-16437071D02*
X109990476Y-16484690D01*
X109990476Y-16484690D02*
X110038095Y-16532309D01*
X110038095Y-16532309D02*
X110085714Y-16627547D01*
X110085714Y-16627547D02*
X110085714Y-16865642D01*
X110085714Y-16865642D02*
X110038095Y-16960880D01*
X110038095Y-16960880D02*
X109990476Y-17008500D01*
X109990476Y-17008500D02*
X109895238Y-17056119D01*
X109895238Y-17056119D02*
X109609524Y-17056119D01*
X109609524Y-17056119D02*
X109514286Y-17008500D01*
X109514286Y-17008500D02*
X109466667Y-16960880D01*
X120533333Y-25770880D02*
X120485714Y-25818500D01*
X120485714Y-25818500D02*
X120342857Y-25866119D01*
X120342857Y-25866119D02*
X120247619Y-25866119D01*
X120247619Y-25866119D02*
X120104762Y-25818500D01*
X120104762Y-25818500D02*
X120009524Y-25723261D01*
X120009524Y-25723261D02*
X119961905Y-25628023D01*
X119961905Y-25628023D02*
X119914286Y-25437547D01*
X119914286Y-25437547D02*
X119914286Y-25294690D01*
X119914286Y-25294690D02*
X119961905Y-25104214D01*
X119961905Y-25104214D02*
X120009524Y-25008976D01*
X120009524Y-25008976D02*
X120104762Y-24913738D01*
X120104762Y-24913738D02*
X120247619Y-24866119D01*
X120247619Y-24866119D02*
X120342857Y-24866119D01*
X120342857Y-24866119D02*
X120485714Y-24913738D01*
X120485714Y-24913738D02*
X120533333Y-24961357D01*
X120866667Y-24866119D02*
X121533333Y-24866119D01*
X121533333Y-24866119D02*
X121104762Y-25866119D01*
X90933333Y-25866119D02*
X90600000Y-25389928D01*
X90361905Y-25866119D02*
X90361905Y-24866119D01*
X90361905Y-24866119D02*
X90742857Y-24866119D01*
X90742857Y-24866119D02*
X90838095Y-24913738D01*
X90838095Y-24913738D02*
X90885714Y-24961357D01*
X90885714Y-24961357D02*
X90933333Y-25056595D01*
X90933333Y-25056595D02*
X90933333Y-25199452D01*
X90933333Y-25199452D02*
X90885714Y-25294690D01*
X90885714Y-25294690D02*
X90838095Y-25342309D01*
X90838095Y-25342309D02*
X90742857Y-25389928D01*
X90742857Y-25389928D02*
X90361905Y-25389928D01*
X91790476Y-25199452D02*
X91790476Y-25866119D01*
X91552381Y-24818500D02*
X91314286Y-25532785D01*
X91314286Y-25532785D02*
X91933333Y-25532785D01*
X55166666Y-33266119D02*
X55166666Y-33980404D01*
X55166666Y-33980404D02*
X55119047Y-34123261D01*
X55119047Y-34123261D02*
X55023809Y-34218500D01*
X55023809Y-34218500D02*
X54880952Y-34266119D01*
X54880952Y-34266119D02*
X54785714Y-34266119D01*
X55690476Y-34266119D02*
X55880952Y-34266119D01*
X55880952Y-34266119D02*
X55976190Y-34218500D01*
X55976190Y-34218500D02*
X56023809Y-34170880D01*
X56023809Y-34170880D02*
X56119047Y-34028023D01*
X56119047Y-34028023D02*
X56166666Y-33837547D01*
X56166666Y-33837547D02*
X56166666Y-33456595D01*
X56166666Y-33456595D02*
X56119047Y-33361357D01*
X56119047Y-33361357D02*
X56071428Y-33313738D01*
X56071428Y-33313738D02*
X55976190Y-33266119D01*
X55976190Y-33266119D02*
X55785714Y-33266119D01*
X55785714Y-33266119D02*
X55690476Y-33313738D01*
X55690476Y-33313738D02*
X55642857Y-33361357D01*
X55642857Y-33361357D02*
X55595238Y-33456595D01*
X55595238Y-33456595D02*
X55595238Y-33694690D01*
X55595238Y-33694690D02*
X55642857Y-33789928D01*
X55642857Y-33789928D02*
X55690476Y-33837547D01*
X55690476Y-33837547D02*
X55785714Y-33885166D01*
X55785714Y-33885166D02*
X55976190Y-33885166D01*
X55976190Y-33885166D02*
X56071428Y-33837547D01*
X56071428Y-33837547D02*
X56119047Y-33789928D01*
X56119047Y-33789928D02*
X56166666Y-33694690D01*
X33404761Y-17151357D02*
X33309523Y-17103738D01*
X33309523Y-17103738D02*
X33214285Y-17008500D01*
X33214285Y-17008500D02*
X33071428Y-16865642D01*
X33071428Y-16865642D02*
X32976190Y-16818023D01*
X32976190Y-16818023D02*
X32880952Y-16818023D01*
X32928571Y-17056119D02*
X32833333Y-17008500D01*
X32833333Y-17008500D02*
X32738095Y-16913261D01*
X32738095Y-16913261D02*
X32690476Y-16722785D01*
X32690476Y-16722785D02*
X32690476Y-16389452D01*
X32690476Y-16389452D02*
X32738095Y-16198976D01*
X32738095Y-16198976D02*
X32833333Y-16103738D01*
X32833333Y-16103738D02*
X32928571Y-16056119D01*
X32928571Y-16056119D02*
X33119047Y-16056119D01*
X33119047Y-16056119D02*
X33214285Y-16103738D01*
X33214285Y-16103738D02*
X33309523Y-16198976D01*
X33309523Y-16198976D02*
X33357142Y-16389452D01*
X33357142Y-16389452D02*
X33357142Y-16722785D01*
X33357142Y-16722785D02*
X33309523Y-16913261D01*
X33309523Y-16913261D02*
X33214285Y-17008500D01*
X33214285Y-17008500D02*
X33119047Y-17056119D01*
X33119047Y-17056119D02*
X32928571Y-17056119D01*
X34309523Y-17056119D02*
X33738095Y-17056119D01*
X34023809Y-17056119D02*
X34023809Y-16056119D01*
X34023809Y-16056119D02*
X33928571Y-16198976D01*
X33928571Y-16198976D02*
X33833333Y-16294214D01*
X33833333Y-16294214D02*
X33738095Y-16341833D01*
X134548095Y-33266119D02*
X134548095Y-34075642D01*
X134548095Y-34075642D02*
X134595714Y-34170880D01*
X134595714Y-34170880D02*
X134643333Y-34218500D01*
X134643333Y-34218500D02*
X134738571Y-34266119D01*
X134738571Y-34266119D02*
X134929047Y-34266119D01*
X134929047Y-34266119D02*
X135024285Y-34218500D01*
X135024285Y-34218500D02*
X135071904Y-34170880D01*
X135071904Y-34170880D02*
X135119523Y-34075642D01*
X135119523Y-34075642D02*
X135119523Y-33266119D01*
X136024285Y-33266119D02*
X135833809Y-33266119D01*
X135833809Y-33266119D02*
X135738571Y-33313738D01*
X135738571Y-33313738D02*
X135690952Y-33361357D01*
X135690952Y-33361357D02*
X135595714Y-33504214D01*
X135595714Y-33504214D02*
X135548095Y-33694690D01*
X135548095Y-33694690D02*
X135548095Y-34075642D01*
X135548095Y-34075642D02*
X135595714Y-34170880D01*
X135595714Y-34170880D02*
X135643333Y-34218500D01*
X135643333Y-34218500D02*
X135738571Y-34266119D01*
X135738571Y-34266119D02*
X135929047Y-34266119D01*
X135929047Y-34266119D02*
X136024285Y-34218500D01*
X136024285Y-34218500D02*
X136071904Y-34170880D01*
X136071904Y-34170880D02*
X136119523Y-34075642D01*
X136119523Y-34075642D02*
X136119523Y-33837547D01*
X136119523Y-33837547D02*
X136071904Y-33742309D01*
X136071904Y-33742309D02*
X136024285Y-33694690D01*
X136024285Y-33694690D02*
X135929047Y-33647071D01*
X135929047Y-33647071D02*
X135738571Y-33647071D01*
X135738571Y-33647071D02*
X135643333Y-33694690D01*
X135643333Y-33694690D02*
X135595714Y-33742309D01*
X135595714Y-33742309D02*
X135548095Y-33837547D01*
%TO.C,C8*%
D11*
X149210000Y-34910000D02*
X154610000Y-34910000D01*
%TO.C,F1*%
X40000000Y-17700000D02*
X45400000Y-17700000D01*
%TO.C,J4*%
X66200000Y-83200000D02*
X75200000Y-83200000D01*
%TO.C,R1*%
X140000000Y-17700000D02*
X145400000Y-17700000D01*
%TO.C,T1*%
X77200000Y-70580000D02*
X86200000Y-70580000D01*
%TO.C,U3*%
X88200000Y-17700000D02*
X97200000Y-17700000D01*
%TO.C,D1*%
X47400000Y-17700000D02*
X52800000Y-17700000D01*
%TO.C,U7*%
X66200000Y-70580000D02*
X75200000Y-70580000D01*
%TO.C,C5*%
X73600000Y-26510000D02*
X79000000Y-26510000D01*
%TO.C,J2*%
X118000000Y-34910000D02*
X128810000Y-34910000D01*
%TO.C,L2*%
X141810000Y-34910000D02*
X147210000Y-34910000D01*
%TO.C,C4*%
X66200000Y-26510000D02*
X71600000Y-26510000D01*
%TO.C,T2*%
X88200000Y-70580000D02*
X97200000Y-70580000D01*
%TO.C,J1*%
X18000000Y-17700000D02*
X27000000Y-17700000D01*
%TO.C,J8*%
X40000000Y-34910000D02*
X49000000Y-34910000D01*
%TO.C,U5*%
X129000000Y-17700000D02*
X138000000Y-17700000D01*
%TO.C,U4*%
X118000000Y-17700000D02*
X127000000Y-17700000D01*
%TO.C,J6*%
X18000000Y-34910000D02*
X27000000Y-34910000D01*
%TO.C,J7*%
X29000000Y-34910000D02*
X38000000Y-34910000D01*
%TO.C,L1*%
X99200000Y-17700000D02*
X104600000Y-17700000D01*
%TO.C,R3*%
X154800000Y-17700000D02*
X160200000Y-17700000D01*
%TO.C,C6*%
X81000000Y-26510000D02*
X86400000Y-26510000D01*
%TO.C,J3*%
X99200000Y-70580000D02*
X108200000Y-70580000D01*
%TO.C,R5*%
X95800000Y-26510000D02*
X101200000Y-26510000D01*
%TO.C,Y1*%
X129000000Y-70580000D02*
X134400000Y-70580000D01*
%TO.C,C2*%
X18000000Y-25240000D02*
X23400000Y-25240000D01*
%TO.C,C1*%
X54800000Y-17700000D02*
X60200000Y-17700000D01*
%TO.C,U1*%
X66200000Y-17700000D02*
X75200000Y-17700000D01*
%TO.C,SOM1*%
X66200375Y-34910000D02*
X77105625Y-34910000D01*
%TO.C,U8*%
X118000000Y-70580000D02*
X127000000Y-70580000D01*
%TO.C,R2*%
X147400000Y-17700000D02*
X152800000Y-17700000D01*
%TO.C,U2*%
X77200000Y-17700000D02*
X86200000Y-17700000D01*
%TO.C,SD1*%
X18000000Y-42450000D02*
X23400000Y-42450000D01*
%TO.C,J5*%
X136400000Y-70580000D02*
X141800000Y-70580000D01*
%TO.C,C3*%
X106600000Y-17700000D02*
X112000000Y-17700000D01*
%TO.C,C7*%
X118000000Y-26510000D02*
X123400000Y-26510000D01*
%TO.C,R4*%
X88400000Y-26510000D02*
X93800000Y-26510000D01*
%TO.C,J9*%
X51000000Y-34910000D02*
X60000000Y-34910000D01*
%TO.C,Q1*%
X29000000Y-17700000D02*
X38000000Y-17700000D01*
%TO.C,U6*%
X130810000Y-34910000D02*
X139810000Y-34910000D01*
%TD*%
M02*
